<?xml version="1.0" encoding="UTF-8" standalone="no"?>
<!DOCTYPE svg PUBLIC "-//W3C//DTD SVG 1.1//EN" "http://www.w3.org/Graphics/SVG/1.1/DTD/svg11.dtd">
<svg width="100%" height="100%" viewBox="0 0 441 377" version="1.1" xmlns="http://www.w3.org/2000/svg" xmlns:xlink="http://www.w3.org/1999/xlink" xml:space="preserve" xmlns:serif="http://www.serif.com/" style="fill-rule:evenodd;clip-rule:evenodd;stroke-linejoin:round;stroke-miterlimit:2;">
    <g transform="matrix(1,0,0,1,-1831.730619,-176.339498)">
        <g transform="matrix(3,0,0,3,0,0)">
            <path d="M656.055,94.505C655.483,89.969 655.294,90.023 654.289,85.552C650.965,70.771 661.057,61.768 669.446,59.313C671.633,58.672 677.221,58.481 680.51,59.467C692.172,62.963 697.441,76.6 690.374,87.418C686.228,93.765 682.92,94.417 682.859,102.505C682.791,111.647 690.329,115.224 694.429,115.901C701.57,117.081 707.102,112.778 708.158,112.048C710.173,110.654 718.075,101.397 729.524,100.88C739.971,100.409 745.083,104.846 747.845,107.075C754.874,112.745 756.929,121.84 757.03,122.574C758.345,132.06 756.904,141.057 748.364,149.36C746.931,150.753 738.473,158.976 724.475,156.671C715.055,155.12 711.287,149.312 700.528,147.319C697.609,146.779 691.903,147.921 688.283,150.138C679.115,155.751 679.431,161.014 672.05,171.146C665.951,179.518 653.184,185.049 643.542,184.118C627.014,182.523 620.17,173.197 616.72,168.351C608.539,156.862 610.578,142.825 611.473,139.493C616.687,120.073 631.553,112.791 640.585,110.918C656.282,107.664 655.813,97.116 656.055,94.505Z" fill="#FFFFFF"/>
        </g>
    </g>
</svg>