<?xml version="1.0" encoding="UTF-8" standalone="no"?>
<!DOCTYPE svg PUBLIC "-//W3C//DTD SVG 1.1//EN" "http://www.w3.org/Graphics/SVG/1.1/DTD/svg11.dtd">
<svg width="100%" height="100%" viewBox="0 0 469 373" version="1.1" xmlns="http://www.w3.org/2000/svg" xmlns:xlink="http://www.w3.org/1999/xlink" xml:space="preserve" xmlns:serif="http://www.serif.com/" style="fill-rule:evenodd;clip-rule:evenodd;stroke-linejoin:round;stroke-miterlimit:2;">
    <g transform="matrix(1,0,0,1,-1841.272557,-1549.315385)">
        <g transform="matrix(3,0,0,3,0,0)">
            <path d="M769.894,563.491C769.606,569.352 767.849,574.557 761.759,579.808C755.33,585.352 747.422,582.824 744.467,583.255C742.265,583.577 738.001,585.517 737.042,589.378C734.883,598.07 743.307,599.977 746.505,606.497C747.301,608.12 750.349,613.524 748.702,621.547C748.281,623.598 746.069,628.832 743.171,632.221C742.247,633.301 737.232,639.167 727.515,640.615C724.861,641.01 712.462,641.417 704.591,630.435C701.464,626.073 700.956,622.229 700.854,621.458C699.862,613.949 702.663,609.926 701.514,604.497C700.791,601.077 699.417,595.065 690.43,591.693C688.374,590.922 682.758,590.209 678.61,591.791C666.51,596.405 665.544,605.2 656.226,612.132C650.836,616.142 642.254,618.28 635.485,616.563C622.496,613.267 617.991,604.692 615.705,599.414C615.684,599.365 614.014,594.869 613.811,591.474C612.977,577.576 622.18,570.023 623.712,568.766C628.882,564.524 636.258,562.433 641.504,563.477C651.995,565.565 654.425,571.508 662.494,571.735C670.246,571.953 678.127,564.252 673.769,554.375C671.719,549.729 662.416,539.516 672.018,526.156C672.844,525.008 674.673,521.983 680.29,519.067C696.302,510.757 716.144,523.124 711.465,542.492C709.65,550.003 712.119,553.605 712.66,554.395C716.453,559.931 723.315,560.426 728.782,556.964C733.846,553.758 734.028,549.947 740.733,545.884C741.162,545.624 745.785,543.334 749.49,543.209C757.581,542.938 762.516,547.801 763.365,548.637C768.22,553.421 769.452,558.558 769.894,563.491Z" fill="#FFFFFF"/>
        </g>
    </g>
</svg>