<?xml version="1.0" encoding="UTF-8" standalone="no"?>
<!DOCTYPE svg PUBLIC "-//W3C//DTD SVG 1.1//EN" "http://www.w3.org/Graphics/SVG/1.1/DTD/svg11.dtd">
<svg width="100%" height="100%" viewBox="0 0 505 384" version="1.1" xmlns="http://www.w3.org/2000/svg" xmlns:xlink="http://www.w3.org/1999/xlink" xml:space="preserve" xmlns:serif="http://www.serif.com/" style="fill-rule:evenodd;clip-rule:evenodd;stroke-linejoin:round;stroke-miterlimit:2;">
    <g transform="matrix(1,0,0,1,-705.107608,-693.634084)">
        <g transform="matrix(3,0,0,3,0,0)">
            <path d="M385.953,288.53C385.844,293.15 385.299,296.32 388.927,303.264C391.332,307.867 397.995,311.094 401.571,320.47C402.586,323.13 403.066,324.102 403.289,329.511C403.87,343.616 394.344,351.534 389.675,354.769C381.917,360.143 363.43,363.235 351.172,347.752C347.642,343.293 345.217,336.59 345.081,331.519C344.972,327.465 346.017,316.987 337.551,307.455C336.336,306.088 328.929,297.749 316.501,298.528C308.678,299.019 304.16,300.143 294.69,309.688C293.235,311.154 283.055,324.329 264.558,322.041C250.519,320.305 242.931,309.527 242.254,308.693C237.525,302.866 232.754,290.372 236.226,278.421C236.703,276.779 239.514,264.563 251.582,256.625C261.291,250.238 270.559,250.865 273.514,251.407C292.236,254.842 292.366,265.208 304.445,267.737C311.135,269.137 317.64,266.088 320.593,261.565C325.957,253.35 324.302,246.32 336.37,237.315C340.96,233.89 350.66,230.14 358.501,231.496C368.318,233.193 377.48,237.165 384.768,250.367C386.324,253.185 388.64,259.463 388.892,263.466C389.761,277.249 388.071,277.47 386.259,286.445C386.226,286.61 386.236,286.599 385.953,288.53Z" fill="#FFFFFF"/>
        </g>
    </g>
</svg>