<?xml version="1.0" encoding="UTF-8" standalone="no"?>
<!DOCTYPE svg PUBLIC "-//W3C//DTD SVG 1.1//EN" "http://www.w3.org/Graphics/SVG/1.1/DTD/svg11.dtd">
<svg width="100%" height="100%" viewBox="0 0 461 361" version="1.1" xmlns="http://www.w3.org/2000/svg" xmlns:xlink="http://www.w3.org/1999/xlink" xml:space="preserve" xmlns:serif="http://www.serif.com/" style="fill-rule:evenodd;clip-rule:evenodd;stroke-linejoin:round;stroke-miterlimit:2;">
    <g transform="matrix(1,0,0,1,-203.166357,-1142.622107)">
        <g transform="matrix(3,0,0,3,0,0)">
            <path d="M115.947,473.517C115.765,478.621 115.479,481.623 112.63,487.568C110.734,491.525 105.249,496.967 101.543,498.588C100.847,498.893 91.948,503.429 82.49,499.524C71.571,495.015 63.645,482.616 69.971,468.735C71.247,465.935 75.424,461.153 78.486,459.476C85.929,455.402 86.953,457.397 90.914,453.987C93.217,452.005 95.29,449.86 95.105,444.519C94.873,437.851 90.698,437.1 85.302,429.634C72.845,412.401 85.059,391.131 97.687,384.873C103.985,381.752 109.765,380.182 117.547,381.166C121.149,381.621 128.365,384.264 133.104,388.904C140.202,395.852 139.374,403.588 142.65,408.403C144.18,410.652 146.285,413.142 151.519,414.424C160.998,416.745 168.495,408.13 170.902,405.938C184.329,393.71 205.339,394.232 216.78,412.338C218.34,414.807 221.054,421.483 221.151,427.51C221.228,432.344 221.47,438.501 214.607,448.576C211.432,453.238 202.653,462.087 189.495,462.247C187.974,462.266 185.024,462.623 178.419,460.795C166.083,457.381 159.062,447.036 145.493,446.717C143.374,446.667 130.134,445.135 120.182,459.287C116.176,464.983 116.016,472.626 115.947,473.517Z" fill="#FE6705"/>
        </g>
    </g>
</svg>