<?xml version="1.0" encoding="UTF-8" standalone="no"?>
<!DOCTYPE svg PUBLIC "-//W3C//DTD SVG 1.1//EN" "http://www.w3.org/Graphics/SVG/1.1/DTD/svg11.dtd">
<svg width="100%" height="100%" viewBox="0 0 466 439" version="1.1" xmlns="http://www.w3.org/2000/svg" xmlns:xlink="http://www.w3.org/1999/xlink" xml:space="preserve" xmlns:serif="http://www.serif.com/" style="fill-rule:evenodd;clip-rule:evenodd;stroke-linejoin:round;stroke-miterlimit:2;">
    <g transform="matrix(1,0,0,1,-1871.458599,-608.455683)">
        <g transform="matrix(3,0,0,3,0,0)">
            <path d="M726.056,289.504C726.021,289.016 726.021,282.279 721.79,277.262C711.676,265.27 696.995,268.636 690.292,274.244C676.864,285.478 682.541,295.091 678.693,306.565C677.828,309.145 675.648,313.335 674.136,315.204C666.695,324.404 658.972,325.252 657.522,325.594C641.272,329.431 624.299,315.913 623.828,297.488C623.626,289.607 627.116,282.251 628.775,279.668C638.108,265.141 651.289,263.885 653.499,263.496C658.972,262.534 669.34,265.152 677.187,257.193C680.457,253.876 683.722,247.565 682.561,239.492C681.703,233.523 681.913,233.495 682.904,227.564C683.911,221.534 688.553,214.229 693.454,210.444C703.481,202.702 710.869,202.325 719.543,203.094C722.414,203.348 728.885,205.565 732.611,208.343C745.89,218.241 745.172,231.276 745.182,232.5C745.266,242.983 739.336,248.412 738.851,255.532C738.421,261.862 739.082,265.022 741.232,268.644C743.481,272.431 744.595,273.308 748.296,275.815C755.248,280.524 764.92,278.768 774.257,293.647C775.863,296.207 778.539,302.839 778.871,307.466C779.746,319.648 776.002,328.7 768.013,338.051C766.268,340.094 760.524,344.6 755.536,346.588C742.4,351.823 731.432,346.857 731.386,346.842C730.288,346.476 725.235,344.788 719.669,338.356C713.952,331.751 713.122,323.064 713.486,320.498C714.603,312.601 717.315,308.806 717.488,308.493C719.91,304.104 725.815,299.946 726.056,289.504Z" fill="#C7D62A"/>
        </g>
    </g>
</svg>