<?xml version="1.0" encoding="UTF-8" standalone="no"?>
<!DOCTYPE svg PUBLIC "-//W3C//DTD SVG 1.1//EN" "http://www.w3.org/Graphics/SVG/1.1/DTD/svg11.dtd">
<svg width="100%" height="100%" viewBox="0 0 861 980" version="1.1" xmlns="http://www.w3.org/2000/svg" xmlns:xlink="http://www.w3.org/1999/xlink" xml:space="preserve" xmlns:serif="http://www.serif.com/" style="fill-rule:evenodd;clip-rule:evenodd;stroke-linejoin:round;stroke-miterlimit:2;">
    <g transform="matrix(1,0,0,1,-3761.050286,-403.320343)">
        <g transform="matrix(4.826875,0,0,4.827364,0,0)">
            <path d="M852.05,124.499C852.094,123.009 852.381,113.313 856.179,106.335C876.729,68.575 941.513,79.88 943.224,124.515C944.276,151.972 920.547,161.609 915.18,165.004C892.414,179.407 904.052,199.256 904.308,199.623C911.484,209.923 920.316,210.241 924.455,210.838C926.871,211.187 942.941,213.506 951.014,225.843C968.839,253.08 947.043,285.162 920.492,286.362C890.276,287.728 877.486,260.18 875.001,255.77C856.75,223.379 831.893,233.336 823.42,235.106C785.857,242.954 767.475,202.013 787.23,178.281C803.179,159.121 822.972,170.946 835.35,165.166C856.72,155.187 851.956,129.668 852.05,124.499Z" fill="#C7D62A"/>
        </g>
    </g>
</svg>