<?xml version="1.0" encoding="UTF-8" standalone="no"?>
<!DOCTYPE svg PUBLIC "-//W3C//DTD SVG 1.1//EN" "http://www.w3.org/Graphics/SVG/1.1/DTD/svg11.dtd">
<svg width="100%" height="100%" viewBox="0 0 511 366" version="1.1" xmlns="http://www.w3.org/2000/svg" xmlns:xlink="http://www.w3.org/1999/xlink" xml:space="preserve" xmlns:serif="http://www.serif.com/" style="fill-rule:evenodd;clip-rule:evenodd;stroke-linejoin:round;stroke-miterlimit:2;">
    <g transform="matrix(1,0,0,1,-2432.084613,-1518.100997)">
        <g transform="matrix(3,0,0,3,0,0)">
            <path d="M901.489,506.034C905.006,506.09 905.025,505.917 908.427,506.798C923.95,510.821 927.618,526.692 926.57,532.511C924.467,544.181 918.981,547.776 916.926,551.732C912.113,560.995 916.283,567.515 917.506,569.496C919.106,572.086 922.812,574.054 923.557,574.383C933.2,578.646 940.471,572.929 947.47,571.368C952.201,570.313 958.134,571.025 959.531,571.378C974.91,575.261 980.406,589.785 980.748,597.49C980.794,598.538 981.036,604.006 978.138,610.34C969.16,629.961 951.215,627.961 950.467,627.931C946.471,627.771 941.185,625.804 938.642,624.259C924.812,615.861 926.36,606.152 914.69,597.24C902.433,587.881 887.334,589.831 876.966,599.966C869.734,607.037 865.388,620.301 848.519,624.579C844.724,625.542 837.322,625.164 835.453,624.705C825.123,622.169 819.332,615.009 818.715,614.313C812.934,607.801 811.083,599.38 810.899,596.463C810.462,589.559 810.477,585.706 813.537,578.517C817.254,569.785 824.847,564.218 828.448,562.405C834.741,559.237 837.971,559.013 841.512,558.927C848.221,558.763 851.639,560.551 857.463,561.67C858.361,561.843 864.11,562.947 868.759,559.917C879.24,553.085 875.758,543.783 875.084,537.542C873.135,519.489 885.994,509.155 896.539,506.666C899.445,505.981 899.462,506.154 901.489,506.034Z" fill="#FFFFFF"/>
        </g>
    </g>
</svg>