<?xml version="1.0" encoding="UTF-8" standalone="no"?>
<!DOCTYPE svg PUBLIC "-//W3C//DTD SVG 1.1//EN" "http://www.w3.org/Graphics/SVG/1.1/DTD/svg11.dtd">
<svg width="100%" height="100%" viewBox="0 0 1028 948" version="1.1" xmlns="http://www.w3.org/2000/svg" xmlns:xlink="http://www.w3.org/1999/xlink" xml:space="preserve" xmlns:serif="http://www.serif.com/" style="fill-rule:evenodd;clip-rule:evenodd;stroke-linejoin:round;stroke-miterlimit:2;">
    <g transform="matrix(1,0,0,1,-2588.900298,-420.278507)">
        <g transform="matrix(4.826875,0,0,4.827364,0,0)">
            <path d="M639.498,87.062C644.702,87.177 650.823,87.296 658.841,93.032C659.899,93.79 666.16,98.269 669.062,105.692C676.423,124.527 665.617,136.706 669.189,151.582C672.995,167.428 692.5,178.305 707.012,159.115C723.319,137.551 744.29,152.74 748.066,165.637C754.499,187.614 734.067,198.452 729.835,204.742C718.153,222.108 733.32,230.969 736.856,245.415C744.128,275.116 713.286,293.012 693.351,277.704C677.341,265.409 685.023,250.009 684.631,237.493C684.098,220.452 661.801,199.466 633.74,220.819C626.78,226.116 612.906,249.276 581.54,244.263C544.423,238.331 532.798,213.11 537.253,194.437C544.204,165.308 576.43,167.061 579.521,166.663C581.461,166.413 594.303,164.759 601.117,155.197C614.193,136.847 602.318,124.442 608.701,107.574C616.103,88.011 636.541,87.182 639.498,87.062Z" fill="#C7D62A"/>
        </g>
    </g>
</svg>