<?xml version="1.0" encoding="UTF-8" standalone="no"?>
<!DOCTYPE svg PUBLIC "-//W3C//DTD SVG 1.1//EN" "http://www.w3.org/Graphics/SVG/1.1/DTD/svg11.dtd">
<svg width="100%" height="100%" viewBox="0 0 529 357" version="1.1" xmlns="http://www.w3.org/2000/svg" xmlns:xlink="http://www.w3.org/1999/xlink" xml:space="preserve" xmlns:serif="http://www.serif.com/" style="fill-rule:evenodd;clip-rule:evenodd;stroke-linejoin:round;stroke-miterlimit:2;">
    <g transform="matrix(1,0,0,1,-1205.921604,-1093.165916)">
        <g transform="matrix(3,0,0,3,0,0)">
            <path d="M493.957,389.502C494.03,393.344 493.029,402.158 502.309,406.909C508.994,410.332 517.609,408.378 523.222,401.287C525.719,398.132 534.405,380.819 554.544,383.163C566.877,384.599 583,399.653 576.742,421.567C573.323,433.539 564.739,439.043 563.196,440.032C559.581,442.351 552.264,444.744 546.553,444.049C539.946,443.246 535.028,440.897 529.173,445.027C520.274,451.305 526.045,458.208 521.197,468.366C514.488,482.421 497.879,487.522 484.62,479.292C477.014,474.57 475.812,468.71 466.447,465.675C464.097,464.914 458.227,464.325 452.578,467.634C444.818,472.18 442.488,478.252 429.521,479.696C424.893,480.212 418.132,478.595 413.616,475.332C411.368,473.707 404.387,468.892 402.233,457.557C401.368,453.009 402.303,442.576 410.748,435.812C420.434,428.054 429.951,431.842 431.514,432.464C436.752,434.549 437.799,435.291 442.48,435.105C450.443,434.79 453.465,426.415 452.539,422.492C450.644,414.463 446.69,414.955 441.772,404.376C441.626,404.063 439.959,399.632 439.741,395.486C438.918,379.809 452.777,364.276 469.501,364.389C478.222,364.448 483.741,368.921 484.543,369.441C487.099,371.097 491.601,376.554 492.894,381.394C493.957,385.37 493.897,385.377 493.957,389.502Z" fill="#000000"/>
        </g>
    </g>
</svg>