<?xml version="1.0" encoding="UTF-8" standalone="no"?>
<!DOCTYPE svg PUBLIC "-//W3C//DTD SVG 1.1//EN" "http://www.w3.org/Graphics/SVG/1.1/DTD/svg11.dtd">
<svg width="100%" height="100%" viewBox="0 0 536 288" version="1.1" xmlns="http://www.w3.org/2000/svg" xmlns:xlink="http://www.w3.org/1999/xlink" xml:space="preserve" xmlns:serif="http://www.serif.com/" style="fill-rule:evenodd;clip-rule:evenodd;stroke-linejoin:round;stroke-miterlimit:2;">
    <g transform="matrix(1,0,0,1,-2438.101141,-690.356829)">
        <g transform="matrix(3,0,0,3,0,0)">
            <path d="M943.497,325.903C940.489,325.82 940.509,325.746 937.536,325.271C937.409,325.251 934.538,324.951 932.58,324.269C920.613,320.097 917.291,316.123 907.314,306.698C899.821,299.62 891.804,297.454 889.545,297.17C869.762,294.675 865.164,307.505 851.49,312.475C836.488,317.929 819.668,310.396 813.923,293.353C811.647,286.602 813.211,278.16 813.395,277.472C815.158,270.895 819.061,266.538 819.774,265.743C820.875,264.514 827.61,256.997 838.504,257.1C844.826,257.16 851.871,262.153 858.751,255.775C861.648,253.089 862.319,250.887 863.223,248.402C866.097,240.496 873.882,231.642 886.465,230.222C891.31,229.675 897.284,231.489 897.476,231.565C910.699,236.79 912.888,247.543 914.491,251.504C914.852,252.396 917.098,257.947 921.779,261.083C930.067,266.635 938.286,262.237 939.539,261.567C947.416,257.352 952.564,244.445 970.441,246.917C975.223,247.579 980.675,251.226 983.054,253.921C992.993,265.182 991.186,277.822 990.846,281.543C990.449,285.881 986.654,298.182 979.757,306.702C974.022,313.786 963.154,325.623 943.497,325.903Z" fill="#FE6705"/>
        </g>
    </g>
</svg>