<?xml version="1.0" encoding="UTF-8" standalone="no"?>
<!DOCTYPE svg PUBLIC "-//W3C//DTD SVG 1.1//EN" "http://www.w3.org/Graphics/SVG/1.1/DTD/svg11.dtd">
<svg width="100%" height="100%" viewBox="0 0 504 301" version="1.1" xmlns="http://www.w3.org/2000/svg" xmlns:xlink="http://www.w3.org/1999/xlink" xml:space="preserve" xmlns:serif="http://www.serif.com/" style="fill-rule:evenodd;clip-rule:evenodd;stroke-linejoin:round;stroke-miterlimit:2;">
    <g transform="matrix(1,0,0,1,-2414.656953,-219.070268)">
        <g transform="matrix(3,0,0,3,0,0)">
            <path d="M971.901,110.435C972.78,118.436 973.065,118.512 971.149,127.426C967.538,144.228 953.498,157.678 937.467,159.089C930.663,159.688 925.582,158.468 924.577,158.226C912.455,155.314 906.505,148.989 895.494,148.916C887.144,148.86 880.977,148.82 864.705,162.745C841.603,182.515 811.707,172.3 805.409,145.521C804.981,143.699 804.462,137.641 805.459,133.491C807.311,125.789 810.784,119.003 818.302,113.23C824.109,108.771 831.317,107.104 834.53,106.883C850.231,105.803 850.328,110.263 863.452,109.123C867.99,108.729 874.392,105.778 879.172,101.16C884.617,95.9 886.662,91.131 894.631,84.667C901.558,79.048 909.456,75.795 913.582,74.882C919.988,73.464 919.947,73.086 926.498,73.049C931.603,73.021 932.408,72.726 941.6,75.135C944.636,75.931 952.128,79.129 957.282,83.747C969.943,95.092 971.195,107.1 971.901,110.435Z" fill="#FD7699"/>
        </g>
    </g>
</svg>