<?xml version="1.0" encoding="UTF-8" standalone="no"?>
<!DOCTYPE svg PUBLIC "-//W3C//DTD SVG 1.1//EN" "http://www.w3.org/Graphics/SVG/1.1/DTD/svg11.dtd">
<svg width="100%" height="100%" viewBox="0 0 433 364" version="1.1" xmlns="http://www.w3.org/2000/svg" xmlns:xlink="http://www.w3.org/1999/xlink" xml:space="preserve" xmlns:serif="http://www.serif.com/" style="fill-rule:evenodd;clip-rule:evenodd;stroke-linejoin:round;stroke-miterlimit:2;">
    <g transform="matrix(1,0,0,1,-179.771914,-146.374171)">
        <g transform="matrix(3,0,0,3,0,0)">
            <path d="M203.943,124.498C204.073,129.01 203.804,128.987 203.077,133.438C201.416,143.596 194.63,152.582 190.527,155.533C186.714,158.275 175.334,166.773 159.444,155.576C153.752,151.565 150.03,142.84 138.496,139.512C138.375,139.477 131.659,137.82 125.399,140.24C114.402,144.493 112.399,155.141 108.379,160.41C106.127,163.361 98.567,172.706 83.581,169.144C82.417,168.867 76.633,167.492 71.23,160.705C62.114,149.255 66.815,131.86 81.347,127.022C96.296,122.045 96.843,108.32 89.372,101.645C82.21,95.247 73.931,100.322 65.219,89.723C60.545,84.036 57.723,74.745 62.112,65.325C63.944,61.393 65.563,57.886 72.349,53.262C86.808,43.409 110.716,49.577 114.989,74.419C118.321,93.793 132.54,95.267 134.485,95.603C140.832,96.698 147.403,92.89 148.392,92.317C153.585,89.308 161.378,83.432 174.545,85.208C179.084,85.821 183.983,88.631 184.739,89.065C188.012,90.943 189.484,91.95 192.602,95.409C196.912,100.191 203.406,108.804 203.943,124.498Z" fill="#FFFFFF"/>
        </g>
    </g>
</svg>