<?xml version="1.0" encoding="UTF-8" standalone="no"?>
<!DOCTYPE svg PUBLIC "-//W3C//DTD SVG 1.1//EN" "http://www.w3.org/Graphics/SVG/1.1/DTD/svg11.dtd">
<svg width="100%" height="100%" viewBox="0 0 487 414" version="1.1" xmlns="http://www.w3.org/2000/svg" xmlns:xlink="http://www.w3.org/1999/xlink" xml:space="preserve" xmlns:serif="http://www.serif.com/" style="fill-rule:evenodd;clip-rule:evenodd;stroke-linejoin:round;stroke-miterlimit:2;">
    <g transform="matrix(1,0,0,1,-1317.057844,-593.541863)">
        <g transform="matrix(3,0,0,3,0,0)">
            <path d="M571.956,218.505C571.874,220.263 571.97,220.259 571.701,221.543C571.327,223.332 567.886,233.8 577.499,235.504C581.599,236.23 591.412,230.958 598.78,242.333C605.996,253.475 596.587,268.951 583.508,268.329C580.397,268.181 571.07,266.346 567.624,276.539C565.598,282.531 570.637,287.919 571.329,288.659C574.103,291.625 581.447,299.02 580.196,311.461C579.89,314.503 577.446,322.66 571.299,328.277C564.416,334.565 555.843,336.113 550.499,335.519C545.24,334.934 545.215,334.902 540.416,332.676C533.619,329.522 528.568,322.365 527.159,317.605C525.592,312.31 524.772,305.32 514.497,301.508C514.127,301.371 509.355,300.103 504.598,301.782C494.04,305.508 491.39,312.576 477.457,314.145C468.84,315.115 461.57,311.513 460.319,310.893C456.373,308.938 448.824,304.781 443.048,293.722C439.104,286.17 436.808,273.443 442.16,261.349C442.482,260.622 444.947,253.596 451.315,247.312C460.082,238.662 481.988,226.942 504.688,246.275C506.139,247.511 513.959,255.357 523.588,252.829C530.102,251.118 537.231,243.119 531.786,232.364C527.472,223.843 528.57,218.148 529.157,215.426C530.205,210.566 533.812,205.272 536.89,202.998C540.108,200.62 548.505,195.083 559.493,199.517C560.611,199.968 568.794,203.68 571.177,212.585C571.981,215.587 571.906,215.92 571.956,218.505Z" fill="#FD7699"/>
        </g>
    </g>
</svg>