<?xml version="1.0" encoding="UTF-8" standalone="no"?>
<!DOCTYPE svg PUBLIC "-//W3C//DTD SVG 1.1//EN" "http://www.w3.org/Graphics/SVG/1.1/DTD/svg11.dtd">
<svg width="100%" height="100%" viewBox="0 0 459 414" version="1.1" xmlns="http://www.w3.org/2000/svg" xmlns:xlink="http://www.w3.org/1999/xlink" xml:space="preserve" xmlns:serif="http://www.serif.com/" style="fill-rule:evenodd;clip-rule:evenodd;stroke-linejoin:round;stroke-miterlimit:2;">
    <g transform="matrix(1,0,0,1,-747.138387,-181.478475)">
        <g transform="matrix(3,0,0,3,0,0)">
            <path d="M374.494,114.065C393.678,114.446 400.229,131.689 401.039,136.58C402.434,145.004 401.502,146.72 400.987,149.588C399.462,158.085 392.73,166.251 386.575,169.632C374.404,176.316 362.849,171.83 357.345,167.718C352.553,164.139 352.884,163.529 348.382,159.639C341.127,153.373 333.352,152.813 330.476,153.35C323.417,154.669 320.497,157.3 320.405,157.372C319.14,158.351 315.062,161.334 312.381,167.446C309.852,173.21 309.839,185.837 295.412,194.352C285.398,200.262 272.601,198.961 264.749,194.094C247.485,183.395 244.457,162.595 255.66,148.625C256.078,148.103 258.617,144.937 261.796,142.953C268.295,138.894 271.907,138.803 274.505,138.582C276.922,138.375 285.645,139.873 289.485,138.455C304.447,132.93 299.534,118.123 298.901,116.354C297.235,111.697 288.767,102.869 288.152,91.522C287.944,87.695 289.407,81.805 289.504,81.501C292.873,70.912 304.132,60.154 318.5,60.501C332.116,60.829 339.246,70.299 339.452,70.54C344.671,76.632 346.242,85.099 345.72,89.526C344.838,97.014 341.829,100.393 343.196,107.572C343.743,110.44 347.049,114.857 350.507,116.487C359.258,120.611 363.797,114.617 374.494,114.065Z" fill="#FFFFFF"/>
        </g>
    </g>
</svg>