<?xml version="1.0" encoding="UTF-8" standalone="no"?>
<!DOCTYPE svg PUBLIC "-//W3C//DTD SVG 1.1//EN" "http://www.w3.org/Graphics/SVG/1.1/DTD/svg11.dtd">
<svg width="100%" height="100%" viewBox="0 0 467 383" version="1.1" xmlns="http://www.w3.org/2000/svg" xmlns:xlink="http://www.w3.org/1999/xlink" xml:space="preserve" xmlns:serif="http://www.serif.com/" style="fill-rule:evenodd;clip-rule:evenodd;stroke-linejoin:round;stroke-miterlimit:2;">
    <g transform="matrix(1,0,0,1,-101.168627,-623.599406)">
        <g transform="matrix(3,0,0,3,0,0)">
            <path d="M132.515,251.956C140.874,251.2 142.062,248.285 150.616,242.689C155.384,239.57 169.458,234.284 181.516,245.483C190.548,253.871 191.601,268.224 185.293,277.364C178.919,286.599 173.721,285.527 171.404,290.452C168.67,296.262 171.508,300.093 171.371,305.496C170.919,323.299 150.226,333.375 134.764,323.096C129.112,319.338 126.753,314.511 126.306,313.596C119.448,299.564 126.576,293.259 121.555,281.474C116.929,270.617 102.056,265.57 92.278,274.244C81.832,283.511 88.341,294.761 89.73,301.45C91.69,310.889 87.867,321.625 80.279,328.242C74.761,333.054 68.141,334.921 65.463,335.112C54.372,335.902 50.332,332.913 50.321,332.907C36.477,326.291 34.445,313.685 33.91,310.433C33.068,305.319 35.194,297.766 37.789,293.68C44.704,282.792 56.073,280.913 56.579,280.781C65.622,278.419 69.939,271.065 70.072,265.479C70.358,253.42 63.623,253.037 62.24,238.527C61.88,234.744 63.378,229.331 63.672,228.565C72.346,205.931 98.309,201.859 111.661,216.353C116.654,221.774 117.444,228.158 117.522,228.495C118.88,234.381 115.057,242.712 123.239,248.864C127.897,252.367 131.857,251.9 132.515,251.956Z" fill="#FD7699"/>
        </g>
    </g>
</svg>