<?xml version="1.0" encoding="UTF-8" standalone="no"?>
<!DOCTYPE svg PUBLIC "-//W3C//DTD SVG 1.1//EN" "http://www.w3.org/Graphics/SVG/1.1/DTD/svg11.dtd">
<svg width="100%" height="100%" viewBox="0 0 381 593" version="1.1" xmlns="http://www.w3.org/2000/svg" xmlns:xlink="http://www.w3.org/1999/xlink" xml:space="preserve" xmlns:serif="http://www.serif.com/" style="fill-rule:evenodd;clip-rule:evenodd;stroke-linejoin:round;stroke-miterlimit:2;">
    <g transform="matrix(1,0,0,1,-735.010303,-1147.954333)">
        <g transform="matrix(3,0,0,3,0,0)">
            <path d="M290.068,549.501C290.114,546.693 290.101,546.71 290.118,546.468C290.217,544.988 291.255,540.36 291.553,539.518C294.783,530.377 296.61,530.06 300.827,522.683C308.831,508.681 302.928,496.558 298.657,492.341C291.682,485.453 284.161,486.917 282.44,487.182C278.086,487.851 263.97,496.412 250.669,481.353C243.565,473.31 241.713,456.932 253.568,446.578C260.732,440.321 265.948,440.739 270.546,439.688C279.651,437.606 282.537,429.88 281.916,423.434C281.657,420.752 280.768,420.844 280.847,411.505C280.943,400.122 289.489,388.057 301.658,383.957C308.15,381.77 315.952,382.805 318.448,383.656C322.186,384.929 327.886,386.775 332.954,394.196C333.678,395.256 337.771,401.249 337.783,409.5C337.786,411.669 336.832,416.724 336.583,417.527C333.919,426.103 328.991,428.907 326.266,435.399C325.925,436.212 323.765,441.36 325.741,446.408C330.602,458.827 343.234,455.203 346.503,455.461C358.731,456.429 363.685,463.452 365.379,465.593C370.962,472.652 372.344,483.263 371.681,487.524C370.824,493.027 370.525,493.914 370.345,494.449C367.861,501.813 364.913,506.668 357.878,512.927C348.068,521.656 348.508,529.119 349.119,534.55C349.348,536.591 352.782,546.251 351.688,552.53C350.987,556.55 350.029,564.343 341.37,572.358C329.139,583.678 309.521,582.47 299.03,570.943C295.349,566.898 290.258,560.727 290.068,549.501Z" fill="#000000"/>
        </g>
    </g>
</svg>