<?xml version="1.0" encoding="UTF-8" standalone="no"?>
<!DOCTYPE svg PUBLIC "-//W3C//DTD SVG 1.1//EN" "http://www.w3.org/Graphics/SVG/1.1/DTD/svg11.dtd">
<svg width="100%" height="100%" viewBox="0 0 866 977" version="1.1" xmlns="http://www.w3.org/2000/svg" xmlns:xlink="http://www.w3.org/1999/xlink" xml:space="preserve" xmlns:serif="http://www.serif.com/" style="fill-rule:evenodd;clip-rule:evenodd;stroke-linejoin:round;stroke-miterlimit:2;">
    <g transform="matrix(1,0,0,1,-279.636785,-433.760252)">
        <g transform="matrix(4.826875,0,0,4.827364,0,0)">
            <path d="M58.052,189.457C58.149,188.616 58.726,183.612 61.217,179.35C69.955,164.406 83.551,167.484 89.494,156.496C95.582,145.238 91.455,139.584 88.898,129.41C81.223,98.872 114.246,84.284 132.381,91.805C156.545,101.826 153.055,122.883 153.098,130.501C153.109,132.429 153.182,145.238 163.768,152.109C177.026,160.714 184.287,155.51 201.519,156.108C224.951,156.92 238.305,179.221 237.118,195.47C235.124,222.753 213.555,228.258 206.96,240.763C198.914,256.021 208.777,261.303 202.07,277.313C197.932,287.19 187.508,291.143 183.542,291.765C161.156,295.277 145.415,271.687 148.285,255.465C150.07,245.371 154.549,240.996 161.116,236.011C170.23,229.092 169.801,218.093 165.261,212.698C155.025,200.534 141.797,211.394 132.793,204.13C126.896,199.372 127.705,191.841 127.645,190.49C127.245,181.44 117.254,175.537 108.494,178.484C95.694,182.789 97.357,199.03 97.122,200.43C93.029,224.869 55.557,217.975 58.052,189.457Z" fill="#FFFFFF"/>
        </g>
    </g>
</svg>