<?xml version="1.0" encoding="UTF-8" standalone="no"?>
<!DOCTYPE svg PUBLIC "-//W3C//DTD SVG 1.1//EN" "http://www.w3.org/Graphics/SVG/1.1/DTD/svg11.dtd">
<svg width="100%" height="100%" viewBox="0 0 419 309" version="1.1" xmlns="http://www.w3.org/2000/svg" xmlns:xlink="http://www.w3.org/1999/xlink" xml:space="preserve" xmlns:serif="http://www.serif.com/" style="fill-rule:evenodd;clip-rule:evenodd;stroke-linejoin:round;stroke-miterlimit:2;">
    <g transform="matrix(1,0,0,1,-1342.315028,-186.957868)">
        <g transform="matrix(3,0,0,3,0,0)">
            <path d="M533.456,137.938C530.461,137.647 530.512,137.286 527.513,137.186C517.118,136.839 515.308,137.887 513.469,138.397C501.411,141.747 492.863,153.466 490.166,156.167C479.413,166.941 463.647,169.487 452.597,155.426C447.979,149.549 447.214,139.851 447.487,137.499C448.501,128.747 450.666,115.908 465.535,103.543C469.761,100.03 476.352,96.526 481.429,95.217C488.437,93.411 492.165,93.621 495.485,93.76C499.316,93.92 511.83,97.393 520.352,87.377C524.096,82.975 528.036,72.779 539.591,66.675C561.816,54.932 577.005,70.632 577.2,70.818C582.167,75.524 585.838,84.034 586.667,90.482C587.964,100.57 584.181,109.125 583.621,110.551C579.109,122.051 569.876,129.974 564.254,133.062C550.542,140.595 540.316,138.804 533.456,137.938Z" fill="#000000"/>
        </g>
    </g>
</svg>