<?xml version="1.0" encoding="UTF-8" standalone="no"?>
<!DOCTYPE svg PUBLIC "-//W3C//DTD SVG 1.1//EN" "http://www.w3.org/Graphics/SVG/1.1/DTD/svg11.dtd">
<svg width="100%" height="100%" viewBox="0 0 507 337" version="1.1" xmlns="http://www.w3.org/2000/svg" xmlns:xlink="http://www.w3.org/1999/xlink" xml:space="preserve" xmlns:serif="http://www.serif.com/" style="fill-rule:evenodd;clip-rule:evenodd;stroke-linejoin:round;stroke-miterlimit:2;">
    <g transform="matrix(1,0,0,1,-1862.300856,-1131.229578)">
        <g transform="matrix(3,0,0,3,0,0)">
            <path d="M709.487,459.929C701.198,459.925 696.415,460.521 685.888,468.968C680.916,472.957 674.429,483.643 660.349,488.007C653.685,490.073 645.183,488.922 643.498,488.51C634.175,486.231 629.13,480.835 626.817,478.221C623.377,474.334 621.131,468.228 620.89,464.465C620.557,459.248 620.463,452.245 626.619,444.592C627.213,443.853 630.882,439.292 635.729,436.996C645.457,432.388 650.008,435.304 656.532,434.969C657.374,434.926 662.672,434.654 665.56,429.537C668.756,423.875 666.591,420.078 664.356,413.548C657.908,394.705 674.194,382.777 676.498,381.497C683.713,377.487 687.356,377.04 692.508,377.079C693.614,377.087 699.535,377.132 705.717,381.146C714.898,387.108 716.743,395.098 717.593,398.476C718.906,403.692 717.122,410.805 721.184,416.704C724.836,422.008 728.997,423.481 731.599,424.064C739.602,425.855 745.627,421.295 752.347,418.162C758.635,415.229 767.925,414.226 775.738,419.101C776.507,419.581 781.171,422.492 784.038,426.832C789.18,434.616 790.166,441.914 789.095,450.455C788.383,456.14 784.078,465.9 776.269,472.21C770.417,476.939 762.913,478.58 761.545,478.779C752.009,480.167 745.481,477.34 743.459,476.602C736.614,474.102 728.737,467.106 723.559,464.396C716.382,460.64 714.92,460.527 709.487,459.929Z" fill="#FE6705"/>
        </g>
    </g>
</svg>