<?xml version="1.0" encoding="UTF-8" standalone="no"?>
<!DOCTYPE svg PUBLIC "-//W3C//DTD SVG 1.1//EN" "http://www.w3.org/Graphics/SVG/1.1/DTD/svg11.dtd">
<svg width="100%" height="100%" viewBox="0 0 1073 947" version="1.1" xmlns="http://www.w3.org/2000/svg" xmlns:xlink="http://www.w3.org/1999/xlink" xml:space="preserve" xmlns:serif="http://www.serif.com/" style="fill-rule:evenodd;clip-rule:evenodd;stroke-linejoin:round;stroke-miterlimit:2;">
    <g transform="matrix(1,0,0,1,-1305.109346,-405.128049)">
        <g transform="matrix(4.826875,0,0,4.827364,0,0)">
            <path d="M363.043,138.534C361.259,126.361 355.799,116.622 363.851,101.692C376.128,78.928 410.629,78.486 423.094,97.788C436.542,118.613 423.839,134.527 434.275,148.656C447.928,167.14 462.388,148.491 480.751,162.153C503.346,178.964 491.243,216.774 464.492,217.115C443.335,217.385 435.959,198.305 429.383,190.598C416.007,174.92 397.802,181.836 395.341,183.186C374.8,194.454 380.547,211.634 377.433,219.475C376.038,222.988 371.116,237.153 352.517,236.13C350.894,236.041 329.718,231.427 322.21,250.385C319.973,256.033 320.556,268.79 312.15,275.061C291.328,290.594 265.143,266.564 271.298,244.441C275.272,230.16 283.805,226.479 291.394,224.15C302.933,220.609 307.972,207.169 294.149,196.944C273.123,181.39 282.693,158.206 293.723,151.863C311.512,141.634 323.227,153.714 327.764,157.147C344.396,169.731 363.542,158.807 363.043,138.534Z" fill="#C7D62A"/>
        </g>
    </g>
</svg>