<?xml version="1.0" encoding="UTF-8" standalone="no"?>
<!DOCTYPE svg PUBLIC "-//W3C//DTD SVG 1.1//EN" "http://www.w3.org/Graphics/SVG/1.1/DTD/svg11.dtd">
<svg width="100%" height="100%" viewBox="0 0 740 6144" version="1.1" xmlns="http://www.w3.org/2000/svg" xmlns:xlink="http://www.w3.org/1999/xlink" xml:space="preserve" xmlns:serif="http://www.serif.com/" style="fill-rule:evenodd;clip-rule:evenodd;stroke-linejoin:round;stroke-miterlimit:2;">
    <g transform="matrix(1,0,0,1,-1678.338231,0)">
        <g transform="matrix(1,0,0,1,1684.540949,-0)">
            <path d="M-0,860.92C-0.273,860.874 -0.545,860.828 -0.814,860.781L-0.814,401.698C-0.814,154.787 -6.203,71.786 -6.203,35.067C-6.203,16.708 -4.856,9.92 -0.814,0L339.673,-0C394.155,200.449 610.232,228.713 610.101,455.348C610.025,587.365 468.101,699.664 318.616,772.635C188.795,836.007 53.27,869.716 -0,860.92Z" fill="#FD7699"/>
        </g>
        <g transform="matrix(1,0,0,1,1684.540949,-0)">
            <path d="M0,2620.283L-0,860.92C53.27,869.716 188.795,836.007 318.616,772.635C474.189,882.785 632.121,1036.939 663.443,1205.67C755.254,1700.271 337.206,1824.919 278.556,1973.945C184.36,2213.29 455.484,2271.068 546.268,2474.205C632.044,2666.134 531.893,2862.445 368.813,2975.486C335.979,2851.829 239.811,2666.196 0,2620.283Z" fill="#FE6705"/>
        </g>
        <g transform="matrix(1,0,0,1,1684.540949,-0)">
            <path d="M-6.203,4483.916L-6.203,2619.133C-4.125,2619.506 -2.057,2619.89 -0,2620.283C239.811,2666.196 335.979,2851.829 368.813,2975.486C376.687,3005.139 380.919,3031.228 382.616,3050.972C404.167,3301.68 174.413,3437.297 382.09,3613.628C433.13,3656.964 773.683,3764.417 729.11,4101.163C710.269,4243.509 558.293,4334.667 397.315,4392.166C397.13,4391.067 396.95,4389.954 396.774,4388.827C378.377,4271.131 550.934,3904.526 278.989,3781.873C141.536,3719.879 27.516,3775.613 -0,3782.867L-0,4482.858C-3.217,4483.336 -5.319,4483.683 -6.203,4483.916Z" fill="#C7D62A"/>
        </g>
        <g transform="matrix(1,0,0,1,1684.540949,-0)">
            <path d="M-0,4872.712L-0,3782.867C27.516,3775.613 141.536,3719.879 278.989,3781.873C550.934,3904.526 378.377,4271.131 396.774,4388.827C396.95,4389.954 397.13,4391.067 397.315,4392.166C413.261,4487.138 460.547,4477.566 590.331,4607.35C790.297,4795.791 807.265,5265.999 305.792,5424.51C305.557,5421.719 305.36,5418.886 305.201,5416.012C294.607,5223.988 600.904,4856.007 -0,4872.712Z" fill="#FD7699"/>
        </g>
        <g transform="matrix(1,0,0,1,1684.540949,-0)">
            <path d="M697.842,6143.994L-6.203,6143.994L-6.203,4872.897C-4.124,4872.831 -2.057,4872.769 0,4872.712C600.904,4856.007 294.607,5223.988 305.201,5416.012C305.36,5418.886 305.557,5421.719 305.792,5424.51C328.992,5700.261 720.303,5576.076 697.842,6143.994Z" fill="#FE6705"/>
        </g>
    </g>
</svg>