<?xml version="1.0" encoding="UTF-8" standalone="no"?>
<!DOCTYPE svg PUBLIC "-//W3C//DTD SVG 1.1//EN" "http://www.w3.org/Graphics/SVG/1.1/DTD/svg11.dtd">
<svg width="100%" height="100%" viewBox="0 0 842 6144" version="1.1" xmlns="http://www.w3.org/2000/svg" xmlns:xlink="http://www.w3.org/1999/xlink" xml:space="preserve" xmlns:serif="http://www.serif.com/" style="fill-rule:evenodd;clip-rule:evenodd;stroke-linejoin:round;stroke-miterlimit:2;">
    <g transform="matrix(1,0,0,1,-3254.000305,0)">
        <g transform="matrix(1,0,0,1,0,0)">
            <path d="M3620.906,2051.038C3607.566,2046.442 3598.691,2042.873 3595.317,2040.833C3346.014,1861.615 3440.96,1545.484 3585.326,1388.969C3620.456,1350.882 3847.952,1155.152 3707.088,914.172C3684.569,875.648 3247.461,572.498 3597.99,81.252C3603.718,73.224 3605.611,73.974 3668.174,-0L4096,0L4096,1612.476C3938.992,1627.658 3689.425,1756.002 3620.906,2051.038Z" fill="#C7D62A"/>
        </g>
        <g transform="matrix(1,0,0,1,0,0)">
            <path d="M3732.002,4164.866C3595.156,3991.195 3470.465,3800.681 3462.964,3681.209C3438.154,3286.019 3949.816,3154.762 3786.301,2841.666C3607.675,2499.633 3576.825,2240.842 3620.906,2051.038C3689.425,1756.002 3938.992,1627.658 4096,1612.476L4096,3573.959C4039.54,3555.198 3856.21,3505.524 3735.531,3627.39C3555.27,3809.422 3696.841,4059.267 3699.534,4070.596C3699.997,4072.543 3716.581,4116.316 3732.002,4164.866Z" fill="#FE6705"/>
        </g>
        <g transform="matrix(1,0,0,1,0,0)">
            <path d="M3481.023,6144C3535.415,6072.165 3876.074,5787.388 3426.775,5393.127C3251.794,5239.581 3110.652,4852.033 3520.712,4613.782C3546.329,4598.898 3751.686,4505.101 3758.202,4280.817C3758.91,4256.469 3745.93,4208.719 3732.002,4164.866C3716.581,4116.316 3699.997,4072.543 3699.534,4070.596C3696.841,4059.267 3555.27,3809.422 3735.531,3627.39C3856.21,3505.524 4039.54,3555.198 4096,3573.959L4096,6144L3481.023,6144Z" fill="#FD7699"/>
        </g>
    </g>
</svg>