<?xml version="1.0" encoding="UTF-8" standalone="no"?>
<!DOCTYPE svg PUBLIC "-//W3C//DTD SVG 1.1//EN" "http://www.w3.org/Graphics/SVG/1.1/DTD/svg11.dtd">
<svg width="100%" height="100%" viewBox="0 0 650 643" version="1.1" xmlns="http://www.w3.org/2000/svg" xmlns:xlink="http://www.w3.org/1999/xlink" xml:space="preserve" xmlns:serif="http://www.serif.com/" style="fill-rule:evenodd;clip-rule:evenodd;stroke-linejoin:round;stroke-miterlimit:2;">
    <g transform="matrix(0.795023,0,0,0.795023,58.702547,38.115062)">
        <circle cx="334.693" cy="355.944" r="91.253" fill="#000000"/>
    </g>
    <path d="M331.808,516.863C322.432,516.863 326.558,557.212 308.579,595.393C285.167,645.112 224.619,640.762 216.445,640.175C178.744,637.466 131.177,598.211 132.017,549.479C133.13,484.877 204.291,452.247 186.796,445.105C181.659,443.008 154.225,465.155 144.646,470.27C42.066,525.046 -24.444,409.777 8.496,348.132C50.543,269.446 137.383,303.98 144.642,294.794C153.149,284.028 134.74,291.632 88.357,264.159C79.215,258.744 39.332,230.729 40.982,183.84C44.144,93.996 160.678,39.304 227.331,143.497C244.427,170.222 242.73,178.334 253.244,172.9C257.333,170.787 249.249,156.023 248.255,153.827C169.375,-20.474 415.951,-50.537 421.347,83.586C423.722,142.599 393.45,163.438 406.275,169.125C408.232,169.993 412.746,171.995 423.881,148.966C426.319,143.924 441.224,113.095 471.79,97.918C569.047,49.625 639.407,166.391 595.942,232.036C558.201,289.035 500.907,280.721 508.216,294.779C512.752,303.502 540.418,289.114 582.929,299.765C683.134,324.872 661.595,469.057 576.374,483.824C529.942,491.87 491.4,458.548 487.634,456.092C478.076,449.859 474.1,444.374 470.612,455.114C469.223,459.39 497.435,478.31 510.468,502.959C558.935,594.622 457.098,662.703 394.255,636.549C331.604,610.474 346.024,516.863 331.808,516.863ZM324.791,229.846C274.427,229.846 233.538,270.735 233.538,321.099C233.538,371.463 274.427,412.352 324.791,412.352C375.155,412.352 416.044,371.463 416.044,321.099C416.044,270.735 375.155,229.846 324.791,229.846Z" fill="#FE6705"/>
</svg>