<?xml version="1.0" encoding="UTF-8" standalone="no"?>
<!DOCTYPE svg PUBLIC "-//W3C//DTD SVG 1.1//EN" "http://www.w3.org/Graphics/SVG/1.1/DTD/svg11.dtd">
<svg width="100%" height="100%" viewBox="0 0 301 292" version="1.1" xmlns="http://www.w3.org/2000/svg" xmlns:xlink="http://www.w3.org/1999/xlink" xml:space="preserve" xmlns:serif="http://www.serif.com/" style="fill-rule:evenodd;clip-rule:evenodd;stroke-linejoin:round;stroke-miterlimit:2;">
    <g transform="matrix(1,0,0,1,-1176.837423,-672.904521)">
        <g transform="matrix(1.5,0,0,1.5,0,0)">
            <path d="M886.891,499.337C904.605,517.271 909.259,498.322 929.461,493.35C985.737,479.503 1006.276,566.218 956.321,593.169C934.464,604.96 914.859,597.485 913.494,597.232C947.165,556.896 885.241,524.734 862.877,562.725C860.563,566.657 856.087,580.043 840.53,579.187C824.113,578.283 825.346,558.648 825.483,556.473C826.067,555.775 826.65,555.078 827.234,554.38C827.416,554.466 829.502,555.455 829.502,555.455C878.723,549.582 885.142,502.107 886.891,499.337Z" fill="#FE6705"/>
        </g>
        <g transform="matrix(1.5,0,0,1.5,0,0)">
            <path d="M825.483,556.473C825.346,558.648 824.113,578.283 840.53,579.187C856.087,580.043 860.563,566.657 862.877,562.725C885.241,524.734 947.165,556.896 913.494,597.232C894.813,603.838 894.219,597.059 884.537,596.174C865.425,594.426 862.144,618.133 862.062,618.308C839.434,667.18 777.499,634.864 785.22,593.453C791.1,561.917 821.75,557.497 825.483,556.473Z" fill="#FD7699"/>
        </g>
        <g transform="matrix(1.5,0,0,1.5,0,0)">
            <path d="M886.891,499.337C885.142,502.107 878.723,549.582 829.502,555.455C829.502,555.455 827.416,554.466 827.234,554.38C827.863,552.751 832.495,540.738 823.106,532.94C774.618,492.668 817.063,451.125 838.555,448.952C887.965,443.957 885.465,494.085 886.891,499.337Z" fill="#C7D62A"/>
        </g>
    </g>
</svg>