<?xml version="1.0" encoding="UTF-8" standalone="no"?>
<!DOCTYPE svg PUBLIC "-//W3C//DTD SVG 1.1//EN" "http://www.w3.org/Graphics/SVG/1.1/DTD/svg11.dtd">
<svg width="100%" height="100%" viewBox="0 0 567 765" version="1.1" xmlns="http://www.w3.org/2000/svg" xmlns:xlink="http://www.w3.org/1999/xlink" xml:space="preserve" xmlns:serif="http://www.serif.com/" style="fill-rule:evenodd;clip-rule:evenodd;stroke-linejoin:round;stroke-miterlimit:2;">
    <g transform="matrix(1,0,0,1,-2261.443713,-214.449248)">
        <g transform="matrix(3,0,0,3,0,0)">
            <path d="M929.542,159.487C958.963,190.512 930.731,208.519 922.886,214.959C901.707,232.344 920.749,271.4 878.506,271.91C849.204,272.263 850.686,280.368 848.796,300.538C846.099,329.333 788.223,343.394 777.356,291.64C824.318,278.881 781.551,235.929 813.677,220.874C826.62,214.808 839.006,221.445 842.487,222.537C885.097,235.893 879.477,188.023 882.898,172.766C892.955,156.965 904.86,148.125 929.542,159.487Z" fill="#FD7699"/>
        </g>
        <g transform="matrix(3,0,0,3,0,0)">
            <path d="M843.615,155.107C855.385,174.963 875.236,173.415 882.898,172.766C879.477,188.023 885.097,235.893 842.487,222.537C839.006,221.445 826.62,214.808 813.677,220.874C781.551,235.929 824.318,278.881 777.356,291.64C771.728,288.514 762.218,283.663 757.3,272.586C743.243,240.928 775.838,228.972 782.059,215.317C789.117,199.823 757.03,166.41 784.87,143.926C814.253,120.197 842.219,154.451 843.615,155.107Z" fill="#C7D62A"/>
        </g>
        <g transform="matrix(3,0,0,3,0,0)">
            <path d="M843.615,155.107C869.197,153.841 861.664,134.313 857.863,121.392C844.118,74.677 907.013,53.625 930.115,89.761C949.344,119.839 929.902,157.365 929.542,159.487C904.86,148.125 892.955,156.965 882.898,172.766C875.236,173.415 855.385,174.963 843.615,155.107Z" fill="#FE6705"/>
        </g>
    </g>
</svg>