<?xml version="1.0" encoding="UTF-8" standalone="no"?>
<!DOCTYPE svg PUBLIC "-//W3C//DTD SVG 1.1//EN" "http://www.w3.org/Graphics/SVG/1.1/DTD/svg11.dtd">
<svg width="100%" height="100%" viewBox="0 0 280 248" version="1.1" xmlns="http://www.w3.org/2000/svg" xmlns:xlink="http://www.w3.org/1999/xlink" xml:space="preserve" xmlns:serif="http://www.serif.com/" style="fill-rule:evenodd;clip-rule:evenodd;stroke-linejoin:round;stroke-miterlimit:2;">
    <g transform="matrix(1,0,0,1,-1173.84758,-385.349724)">
        <g transform="matrix(1.5,0,0,1.5,0,0)">
            <path d="M858.501,333.497C863.248,338.116 863.507,337.457 869.713,340.231C875.891,344.106 916.976,352.832 906.73,386.582C903.429,397.454 894.581,400.779 887.056,405.852C877.498,392.783 867.364,362.201 840.796,377.957C790.129,408.004 760.037,333.679 803.409,311.319C836.547,294.234 854.351,330.916 858.501,333.497Z" fill="#FE6705"/>
        </g>
        <g transform="matrix(1.5,0,0,1.5,0,0)">
            <path d="M927.412,323.567C928.6,324.218 945.591,326.32 957.217,340.731C996.232,389.09 928.111,452.504 887.056,405.852C894.581,400.779 903.429,397.454 906.73,386.582C916.976,352.832 875.891,344.106 869.713,340.231C873.577,338.976 881.128,341.484 889.204,336.049C901.808,327.566 905.28,323.643 927.412,323.567Z" fill="#C7D62A"/>
        </g>
        <g transform="matrix(1.5,0,0,1.5,0,0)">
            <path d="M927.412,323.567C905.28,323.643 901.808,327.566 889.204,336.049C881.128,341.484 873.577,338.976 869.713,340.231C863.507,337.457 863.248,338.116 858.501,333.497C875.586,330.63 866.593,315.575 864.83,311.371C845.338,264.894 912.639,236.5 934.137,274.727C948.296,299.904 931.226,317.584 927.412,323.567Z" fill="#FD7699"/>
        </g>
    </g>
</svg>