<?xml version="1.0" encoding="UTF-8" standalone="no"?>
<!DOCTYPE svg PUBLIC "-//W3C//DTD SVG 1.1//EN" "http://www.w3.org/Graphics/SVG/1.1/DTD/svg11.dtd">
<svg width="100%" height="100%" viewBox="0 0 860 752" version="1.1" xmlns="http://www.w3.org/2000/svg" xmlns:xlink="http://www.w3.org/1999/xlink" xml:space="preserve" xmlns:serif="http://www.serif.com/" style="fill-rule:evenodd;clip-rule:evenodd;stroke-linejoin:round;stroke-miterlimit:2;">
    <g transform="matrix(1,0,0,1,-1175.597253,-242.138905)">
        <g transform="matrix(3,0,0,3,0,0)">
            <path d="M628.512,183.526C627.301,184.33 626.091,185.133 624.881,185.937C579.246,202.354 587.644,169.32 563.28,155.877C535.794,140.71 500.825,162.053 498.325,199.485C498.32,199.555 499.461,217.554 492.308,225.314C479.651,239.046 445.807,212.467 426.895,244.725C424.393,248.992 425.556,249.351 422.552,253.449C369.552,230 392.689,170.21 435.494,171.733C435.67,171.74 461.839,176.965 473,160.173C487.477,138.391 456.536,103.079 494.689,84.926C531.396,67.46 546.917,109.759 558.418,112.755C574.033,116.823 615.558,89.576 638.041,123.817C655.354,150.183 635.694,177.913 628.512,183.526Z" fill="#FE6705"/>
        </g>
        <g transform="matrix(3,0,0,3,0,0)">
            <path d="M628.512,183.526C668.966,169.961 689.218,208.835 672.307,237.386C653.466,269.194 612.925,253.436 607.454,252.922C567.559,249.175 567.208,285.446 564.654,297.538C557.136,333.126 493.144,351.359 470.131,295.898C472.335,261.004 487.058,261.984 508.443,259.116C540.893,254.765 530.377,212.86 567.491,203.462C590.369,197.668 613.575,227.985 624.881,185.937C626.091,185.133 627.301,184.33 628.512,183.526Z" fill="#FD7699"/>
        </g>
        <g transform="matrix(3,0,0,3,0,0)">
            <path d="M624.881,185.937C613.575,227.985 590.369,197.668 567.491,203.462C530.377,212.86 540.893,254.765 508.443,259.116C487.058,261.984 472.335,261.004 470.131,295.898C460.489,299.311 421.271,302.714 423.068,255.47C423.068,255.47 422.594,253.611 422.552,253.449C425.556,249.351 424.393,248.992 426.895,244.725C445.807,212.467 479.651,239.046 492.308,225.314C499.461,217.554 498.32,199.555 498.325,199.485C500.825,162.053 535.794,140.71 563.28,155.877C587.644,169.32 579.246,202.354 624.881,185.937Z" fill="#C7D62A"/>
        </g>
    </g>
</svg>