<?xml version="1.0" encoding="UTF-8" standalone="no"?>
<!DOCTYPE svg PUBLIC "-//W3C//DTD SVG 1.1//EN" "http://www.w3.org/Graphics/SVG/1.1/DTD/svg11.dtd">
<svg width="100%" height="100%" viewBox="0 0 353 347" version="1.1" xmlns="http://www.w3.org/2000/svg" xmlns:xlink="http://www.w3.org/1999/xlink" xml:space="preserve" xmlns:serif="http://www.serif.com/" style="fill-rule:evenodd;clip-rule:evenodd;stroke-linejoin:round;stroke-miterlimit:2;">
    <g transform="matrix(1,0,0,1,-443.930658,-51.735535)">
        <g transform="matrix(1.5,0,0,1.5,0,0)">
            <path d="M478.429,144.324C481.554,142.124 509.488,122.453 526.08,147.79C534.457,160.583 538.004,200.697 490.748,197.999C481.73,194.523 481.946,194.524 473.366,189.73C436.163,168.945 417.448,201.131 417.471,203.136C409.736,209.122 403.736,262.044 360.465,256.86C325.857,252.713 329.246,219.613 329.666,215.51C329.679,215.381 329.666,215.51 329.108,213.996C344.072,192.051 354.82,202.445 364.417,183.456C368.145,176.081 363.741,136.243 392.7,124.997C442.645,105.6 442.217,165.719 478.429,144.324Z" fill="#C7D62A"/>
        </g>
        <g transform="matrix(1.5,0,0,1.5,0,0)">
            <path d="M478.429,144.324C442.217,165.719 442.645,105.6 392.7,124.997C363.741,136.243 368.145,176.081 364.417,183.456C354.82,202.445 344.072,192.051 329.108,213.996C284.143,203.244 282.689,143.628 338.497,140.44C361.243,139.141 371.21,116.768 363.065,100.691C355.223,85.214 351.649,85.587 354.363,68.477C360.414,30.335 424.549,14.228 431.369,74.521C435.289,109.172 472.823,83.395 481.655,119.459C482.02,120.95 485.112,126.815 478.429,144.324Z" fill="#FD7699"/>
        </g>
        <g transform="matrix(1.5,0,0,1.5,0,0)">
            <path d="M490.748,197.999C482.461,214.85 509.88,230.798 489.128,255.186C478.641,267.511 435.049,278.054 437.068,227.495C437.688,211.976 419.763,204.138 417.471,203.136C417.448,201.131 436.163,168.945 473.366,189.73C481.946,194.524 481.73,194.523 490.748,197.999Z" fill="#FE6705"/>
        </g>
    </g>
</svg>