<?xml version="1.0" encoding="UTF-8" standalone="no"?>
<!DOCTYPE svg PUBLIC "-//W3C//DTD SVG 1.1//EN" "http://www.w3.org/Graphics/SVG/1.1/DTD/svg11.dtd">
<svg width="100%" height="100%" viewBox="0 0 283 239" version="1.1" xmlns="http://www.w3.org/2000/svg" xmlns:xlink="http://www.w3.org/1999/xlink" xml:space="preserve" xmlns:serif="http://www.serif.com/" style="fill-rule:evenodd;clip-rule:evenodd;stroke-linejoin:round;stroke-miterlimit:2;">
    <g transform="matrix(1,0,0,1,-442.349571,-718.037528)">
        <g transform="matrix(1.5,0,0,1.5,0,0)">
            <path d="M398.471,522.246C385.363,533.712 384.537,539.787 387.612,552.45C365.849,561.734 365.021,561.125 349.967,579.332C341.641,563.615 338.074,567.491 321.459,561.618C271.951,544.12 298.255,468.627 346.422,479.818C384.099,488.571 367.379,519.883 398.471,522.246Z" fill="#FD7699"/>
        </g>
        <g transform="matrix(1.5,0,0,1.5,0,0)">
            <path d="M398.471,522.246C409.902,519.588 408.94,517.751 417.859,509.934C451.374,480.56 501.539,521.747 476.235,560.32C461.793,582.336 437.786,576.766 430.485,575.875C418.708,557.525 402.242,578.913 387.612,552.45C384.537,539.787 385.363,533.712 398.471,522.246Z" fill="#C7D62A"/>
        </g>
        <g transform="matrix(1.5,0,0,1.5,0,0)">
            <path d="M387.612,552.45C402.242,578.913 418.708,557.525 430.485,575.875C428.132,576.304 409.435,579.712 412.232,599.55C417.247,635.121 382.412,643.956 364.574,634.358C338.178,620.155 352.52,596.726 349.967,579.332C365.021,561.125 365.849,561.734 387.612,552.45Z" fill="#FE6705"/>
        </g>
    </g>
</svg>