<?xml version="1.0" encoding="UTF-8" standalone="no"?>
<!DOCTYPE svg PUBLIC "-//W3C//DTD SVG 1.1//EN" "http://www.w3.org/Graphics/SVG/1.1/DTD/svg11.dtd">
<svg width="100%" height="100%" viewBox="0 0 746 733" version="1.1" xmlns="http://www.w3.org/2000/svg" xmlns:xlink="http://www.w3.org/1999/xlink" xml:space="preserve" xmlns:serif="http://www.serif.com/" style="fill-rule:evenodd;clip-rule:evenodd;stroke-linejoin:round;stroke-miterlimit:2;">
    <g transform="matrix(1,0,0,1,-216.128832,-259.709513)">
        <g transform="matrix(3,0,0,3,0,0)">
            <path d="M80.254,222.688C55.549,181.873 92.727,160.608 111.164,175.918C112.963,177.413 125.727,192.648 138.214,184.116C159.119,169.831 110.897,151.209 133.868,111.733C152.707,79.357 219.11,71.663 225.832,128.458C229.602,160.31 233.353,167.88 268.467,163.206C313.144,157.259 336.435,203.558 308.127,242.223C297.277,257.043 295.982,257.33 297.475,275.501C298.596,289.141 282.647,295.203 280.667,295.955C279.457,293.133 279.287,293.458 278.349,290.549C270.885,267.383 247.969,275.601 251.176,246.21C262.231,229.448 251.787,212.262 231.409,219.231C199.97,229.983 214.913,199.876 201.402,192.669C181.044,181.811 177.409,214.907 174.989,224.513C174.194,225.568 168.207,233.51 163.3,236.175C136.155,250.919 130.467,217.693 128.084,213.748C126.047,210.375 98.67,178.698 80.254,222.688Z" fill="#FE6705"/>
        </g>
        <g transform="matrix(3,0,0,3,0,0)">
            <path d="M80.254,222.688C98.67,178.698 126.047,210.375 128.084,213.748C130.467,217.693 136.155,250.919 163.3,236.175C168.207,233.51 174.194,225.568 174.989,224.513C175.291,224.712 208.736,228.756 209.213,259.507C209.624,286.073 184.138,299.875 162.607,288.304C160.151,286.984 149.068,277.744 138.639,282.77C130.523,286.681 122.239,324.292 88.646,306.264C78.17,300.642 65.78,280.098 75.87,255.66C78.496,249.3 86.279,239.746 80.254,222.688Z" fill="#FD7699"/>
        </g>
        <g transform="matrix(3,0,0,3,0,0)">
            <path d="M251.176,246.21C247.969,275.601 270.885,267.383 278.349,290.549C279.287,293.458 279.457,293.133 280.667,295.955C278.44,299.676 281.141,323.377 254.556,329.731C229.693,335.673 208.601,310.694 219.392,287.454C231.885,260.551 226.39,253.359 251.176,246.21Z" fill="#C7D62A"/>
        </g>
    </g>
</svg>