<?xml version="1.0" encoding="UTF-8" standalone="no"?>
<!DOCTYPE svg PUBLIC "-//W3C//DTD SVG 1.1//EN" "http://www.w3.org/Graphics/SVG/1.1/DTD/svg11.dtd">
<svg width="100%" height="100%" viewBox="0 0 342 294" version="1.1" xmlns="http://www.w3.org/2000/svg" xmlns:xlink="http://www.w3.org/1999/xlink" xml:space="preserve" xmlns:serif="http://www.serif.com/" style="fill-rule:evenodd;clip-rule:evenodd;stroke-linejoin:round;stroke-miterlimit:2;">
    <g transform="matrix(1,0,0,1,-403.982405,-414.183474)">
        <g transform="matrix(1.5,0,0,1.5,0,0)">
            <path d="M327.068,331.555C312.194,269.822 390.924,258.46 404.585,303.472C408.081,314.992 404.619,317.306 414.752,324.129C431.311,335.279 456.393,299.999 486.229,330.76C500.696,345.675 501.882,372.305 484.324,389.324C472.831,400.464 471.544,400.148 468.791,416.554C464.939,439.509 438.916,443.905 435.488,444.484C431.419,443.663 395.402,436.39 404.854,402.605C405.867,398.983 421.434,377.452 401.505,371.481C391.309,368.425 388.933,380.092 359.437,366.747C342.274,355.726 334.643,348.876 327.068,331.555Z" fill="#FE6705"/>
        </g>
        <g transform="matrix(1.5,0,0,1.5,0,0)">
            <path d="M327.068,331.555C334.643,348.876 342.274,355.726 359.437,366.747C356.672,369.126 333.914,388.702 356.542,412.252C338.597,413.257 310.594,442.42 280.994,413.027C261.754,393.922 262.292,344.781 313.502,340.529C325.578,339.526 326.828,332.834 327.068,331.555Z" fill="#C7D62A"/>
        </g>
        <g transform="matrix(1.5,0,0,1.5,0,0)">
            <path d="M359.437,366.747C388.933,380.092 391.309,368.425 401.505,371.481C421.434,377.452 405.867,398.983 404.854,402.605C395.402,436.39 431.419,443.663 435.488,444.484C425.655,489.235 379.29,471.403 381.462,443.498C383.272,420.237 377.082,420.882 356.542,412.252C333.914,388.702 356.672,369.126 359.437,366.747Z" fill="#FD7699"/>
        </g>
    </g>
</svg>