<?xml version="1.0" encoding="UTF-8" standalone="no"?>
<!DOCTYPE svg PUBLIC "-//W3C//DTD SVG 1.1//EN" "http://www.w3.org/Graphics/SVG/1.1/DTD/svg11.dtd">
<svg width="100%" height="100%" viewBox="0 0 316 300" version="1.1" xmlns="http://www.w3.org/2000/svg" xmlns:xlink="http://www.w3.org/1999/xlink" xml:space="preserve" xmlns:serif="http://www.serif.com/" style="fill-rule:evenodd;clip-rule:evenodd;stroke-linejoin:round;stroke-miterlimit:2;">
    <g transform="matrix(1,0,0,1,-84.832461,-665.472813)">
        <g transform="matrix(1.5,0,0,1.5,0,0)">
            <path d="M142.49,509.415C168.85,501.592 139.844,473.971 171.727,451.815C215.499,421.397 270.796,482.622 228.013,526.005C226.54,527.498 212.22,542.019 226.714,552.194C228.15,553.202 270.537,557.131 266.698,595.523C263.69,625.608 216.764,651.923 190.214,606.676C188.578,603.887 188.283,604.266 183.252,599.931C185.951,598.32 185.517,597.767 188.583,596.749C214.875,588.025 222.124,552.509 210.048,534.785C191.426,507.453 165.788,524.359 162.569,526.482C155.842,514.818 154.158,516.567 142.49,509.415Z" fill="#FD7699"/>
        </g>
        <g transform="matrix(1.5,0,0,1.5,0,0)">
            <path d="M162.569,526.482C165.788,524.359 191.426,507.453 210.048,534.785C222.124,552.509 214.875,588.025 188.583,596.749C185.517,597.767 185.951,598.32 183.252,599.931C155.928,590.593 162.253,620.427 154.215,631.307C127.49,667.479 69.569,610.93 125.359,584.236C138.269,578.059 130.062,565.317 129.167,563.927C137.323,562.757 171.579,561.316 162.569,526.482Z" fill="#FE6705"/>
        </g>
        <g transform="matrix(1.5,0,0,1.5,0,0)">
            <path d="M142.49,509.415C154.158,516.567 155.842,514.818 162.569,526.482C171.579,561.316 137.323,562.757 129.167,563.927C120.967,560.046 87.709,587.465 63.843,555.249C39.973,523.028 78.146,460.768 128.899,504.057C136.615,510.638 140.114,509.284 142.49,509.415Z" fill="#C7D62A"/>
        </g>
    </g>
</svg>