<?xml version="1.0" encoding="UTF-8" standalone="no"?>
<!DOCTYPE svg PUBLIC "-//W3C//DTD SVG 1.1//EN" "http://www.w3.org/Graphics/SVG/1.1/DTD/svg11.dtd">
<svg width="100%" height="100%" viewBox="0 0 311 288" version="1.1" xmlns="http://www.w3.org/2000/svg" xmlns:xlink="http://www.w3.org/1999/xlink" xml:space="preserve" xmlns:serif="http://www.serif.com/" style="fill-rule:evenodd;clip-rule:evenodd;stroke-linejoin:round;stroke-miterlimit:2;">
    <g transform="matrix(1,0,0,1,-837.451836,-61.727632)">
        <g transform="matrix(1.5,0,0,1.5,0,0)">
            <path d="M708.43,104.318C693.872,127.349 699.143,137.459 677.613,137.146C676.436,134.832 669.848,117.847 652.496,119.443C623.943,122.07 620.581,156.626 619.262,158.641C611.629,148.999 609.617,158.143 597.54,159.789C541.014,167.492 549.563,86.493 597.679,110.154C606.273,114.38 622.272,110.038 617.066,90.609C600.928,30.386 689.676,23.748 687.339,78.493C686.875,89.348 685.097,106.262 708.43,104.318Z" fill="#FD7699"/>
        </g>
        <g transform="matrix(1.5,0,0,1.5,0,0)">
            <path d="M708.43,104.318C709.104,103.991 739.402,83.962 760.043,112.83C773.216,131.254 764.39,180.031 716.551,167.31C699.479,162.771 685.829,175.168 686.984,191.46C690.883,246.468 620.244,245.351 622.871,195.475C626.635,189.737 628.46,183.814 638.802,176.97C663.096,160.892 669.411,165.111 677.613,137.146C699.143,137.459 693.872,127.349 708.43,104.318Z" fill="#C7D62A"/>
        </g>
        <g transform="matrix(1.5,0,0,1.5,0,0)">
            <path d="M677.613,137.146C669.411,165.111 663.096,160.892 638.802,176.97C628.46,183.814 626.635,189.737 622.871,195.475C622.546,192.532 620.411,173.237 619.262,158.641C620.581,156.626 623.943,122.07 652.496,119.443C669.848,117.847 676.436,134.832 677.613,137.146Z" fill="#FE6705"/>
        </g>
    </g>
</svg>