<?xml version="1.0" encoding="UTF-8" standalone="no"?>
<!DOCTYPE svg PUBLIC "-//W3C//DTD SVG 1.1//EN" "http://www.w3.org/Graphics/SVG/1.1/DTD/svg11.dtd">
<svg width="100%" height="100%" viewBox="0 0 360 310" version="1.1" xmlns="http://www.w3.org/2000/svg" xmlns:xlink="http://www.w3.org/1999/xlink" xml:space="preserve" xmlns:serif="http://www.serif.com/" style="fill-rule:evenodd;clip-rule:evenodd;stroke-linejoin:round;stroke-miterlimit:2;">
    <g transform="matrix(1,0,0,1,-806.827152,-350.672241)">
        <g transform="matrix(1.5,0,0,1.5,0,0)">
            <path d="M673.259,329.097C678.448,374.736 709.446,357.309 722.892,357.244C721.632,363.022 734.935,395.05 707.315,409.087C690.08,417.846 678.124,405.336 674.08,406.604C673.215,403.973 665.275,379.831 643.72,389.964C623.685,399.382 637.336,433.537 607.439,439.151C574.209,445.39 559.685,405.769 582.806,387.863C600.056,374.504 597.894,367.375 586.083,353.967C586.7,349.89 591.857,315.817 626.422,321.88C636.317,323.616 641.981,329.672 651.578,332.204C662.301,335.034 672.523,329.358 673.259,329.097Z" fill="#FE6705"/>
        </g>
        <g transform="matrix(1.5,0,0,1.5,0,0)">
            <path d="M688.511,286.508C688.664,278.423 685.618,246.793 719.597,235.819C767.127,220.47 800.675,295.939 757.44,324.415C748.097,330.569 721.037,333.496 722.263,355.513C722.271,355.66 722.263,355.513 722.892,357.244C709.446,357.309 678.448,374.736 673.259,329.097C676.045,326.788 696.963,309.451 688.511,286.508Z" fill="#C7D62A"/>
        </g>
        <g transform="matrix(1.5,0,0,1.5,0,0)">
            <path d="M688.511,286.508C696.963,309.451 676.045,326.788 673.259,329.097C672.523,329.358 662.301,335.034 651.578,332.204C641.981,329.672 636.317,323.616 626.422,321.88C591.857,315.817 586.7,349.89 586.083,353.967C578.691,350.245 535.863,344.348 537.959,302.533C539.694,267.93 592.453,227.714 629.967,286.162C633.451,291.59 648.564,304.96 666.377,296.259C677.346,290.901 676.941,290.273 688.511,286.508Z" fill="#FD7699"/>
        </g>
        <g transform="matrix(1.5,0,0,1.5,0,0)">
            <path d="M722.892,357.244C726.359,359.404 741.938,365.525 747.676,385.448C760.454,429.817 693.671,465.383 674.08,406.604C678.124,405.336 690.08,417.846 707.315,409.087C734.935,395.05 721.632,363.022 722.892,357.244Z" fill="#FD7699"/>
        </g>
    </g>
</svg>