<?xml version="1.0" encoding="UTF-8" standalone="no"?>
<!DOCTYPE svg PUBLIC "-//W3C//DTD SVG 1.1//EN" "http://www.w3.org/Graphics/SVG/1.1/DTD/svg11.dtd">
<svg width="100%" height="100%" viewBox="0 0 343 267" version="1.1" xmlns="http://www.w3.org/2000/svg" xmlns:xlink="http://www.w3.org/1999/xlink" xml:space="preserve" xmlns:serif="http://www.serif.com/" style="fill-rule:evenodd;clip-rule:evenodd;stroke-linejoin:round;stroke-miterlimit:2;">
    <g transform="matrix(1,0,0,1,-779.845178,-690.388118)">
        <g transform="matrix(1.5,0,0,1.5,0,0)">
            <path d="M666.744,541.666C661.904,543.913 661.032,542.454 656.844,547.476C639.579,493.18 583.611,518.678 585.997,554.456C586.992,569.374 596.506,572.115 579.742,592.51C573.464,567.464 557.821,585.889 537.848,569.068C493.951,532.1 539.192,468.025 581.306,488.92C583.71,490.113 598.763,501.893 612.399,487.414C613.411,486.339 627.532,460.031 655.5,460.26C692.402,460.563 725.058,512.599 666.744,541.666Z" fill="#FE6705"/>
        </g>
        <g transform="matrix(1.5,0,0,1.5,0,0)">
            <path d="M656.844,547.476C657.711,572.641 650.477,573.253 656.269,584.619C658.125,588.261 660.451,588.832 657.485,590.923C622.718,593.076 647.443,629.128 613.413,637.113C606.517,638.731 566.318,639.214 579.742,592.51C596.506,572.115 586.992,569.374 585.997,554.456C583.611,518.678 639.579,493.18 656.844,547.476Z" fill="#FD7699"/>
        </g>
        <g transform="matrix(1.5,0,0,1.5,0,0)">
            <path d="M666.744,541.666C666.578,544.036 676.522,565.045 694.977,537.808C723.514,495.692 775.609,555.718 730.129,595.059C717.069,606.356 692.693,612.787 672.773,599.094C665.491,594.088 665.837,593.703 657.485,590.923C660.451,588.832 658.125,588.261 656.269,584.619C650.477,573.253 657.711,572.641 656.844,547.476C661.032,542.454 661.904,543.913 666.744,541.666Z" fill="#C7D62A"/>
        </g>
    </g>
</svg>