<?xml version="1.0" encoding="UTF-8" standalone="no"?>
<!DOCTYPE svg PUBLIC "-//W3C//DTD SVG 1.1//EN" "http://www.w3.org/Graphics/SVG/1.1/DTD/svg11.dtd">
<svg width="100%" height="100%" viewBox="0 0 289 280" version="1.1" xmlns="http://www.w3.org/2000/svg" xmlns:xlink="http://www.w3.org/1999/xlink" xml:space="preserve" xmlns:serif="http://www.serif.com/" style="fill-rule:evenodd;clip-rule:evenodd;stroke-linejoin:round;stroke-miterlimit:2;">
    <g transform="matrix(1,0,0,1,-69.18769,-59.215463)">
        <g transform="matrix(1.5,0,0,1.5,0,0)">
            <path d="M135.836,144.131C127.618,160.312 122.001,166.006 109.498,166.004C93.319,166.002 94.868,170.51 81.499,179.503C35.651,187.255 33.014,118.16 81.561,125.08C98.739,127.529 103.575,111.738 96.212,102.719C92.219,97.828 78.67,87.639 85.133,65.394C95.538,29.586 157.177,29.275 164.093,74.566C166.09,87.64 162.703,89.419 172.617,98.366C188.492,112.693 213.381,87.622 232.027,116.81C256.819,155.618 199.928,197.522 173.895,161.207C164.355,147.899 169.717,122.954 150.493,125.437C139.368,126.874 132.786,138.554 135.836,144.131Z" fill="#FE6705"/>
        </g>
        <g transform="matrix(1.5,0,0,1.5,0,0)">
            <path d="M135.836,144.131C204.767,185.197 126.964,260.003 88.815,208.277C81.584,198.471 82.516,189.221 81.499,179.503C94.868,170.51 93.319,166.002 109.498,166.004C122.001,166.006 127.618,160.312 135.836,144.131Z" fill="#C7D62A"/>
        </g>
    </g>
</svg>