<?xml version="1.0" encoding="UTF-8" standalone="no"?>
<!DOCTYPE svg PUBLIC "-//W3C//DTD SVG 1.1//EN" "http://www.w3.org/Graphics/SVG/1.1/DTD/svg11.dtd">
<svg width="100%" height="100%" viewBox="0 0 308 266" version="1.1" xmlns="http://www.w3.org/2000/svg" xmlns:xlink="http://www.w3.org/1999/xlink" xml:space="preserve" xmlns:serif="http://www.serif.com/" style="fill-rule:evenodd;clip-rule:evenodd;stroke-linejoin:round;stroke-miterlimit:2;">
    <g transform="matrix(1,0,0,1,-1176.898888,-82.163958)">
        <g transform="matrix(1.5,0,0,1.5,0,0)">
            <path d="M856.58,134.48C861.241,126.047 870.36,106.279 895.493,106.926C939.224,108.053 941.33,171.275 904.509,178.537C901.863,179.059 902.141,179.377 899.601,180.278C852.542,169.347 871.927,237.673 816.561,231.089C769.667,225.512 774.446,144.078 830.428,152.966C832.959,153.368 857.001,157.185 856.58,134.48Z" fill="#FE6705"/>
        </g>
        <g transform="matrix(1.5,0,0,1.5,0,0)">
            <path d="M856.58,134.48C850.964,121.706 825.714,104.1 842.854,73.701C861.117,41.31 909.887,53.741 911.123,86.522C911.591,98.95 907.88,100.621 916.707,109.294C930.254,122.604 964.527,98.338 984.383,134.568C1006.753,175.386 956.834,237.711 907.43,185.567C904.529,182.505 904.25,183.002 899.601,180.278C902.141,179.377 901.863,179.059 904.509,178.537C941.33,171.275 939.224,108.053 895.493,106.926C870.36,106.279 861.241,126.047 856.58,134.48Z" fill="#FD7699"/>
        </g>
    </g>
</svg>