<?xml version="1.0" encoding="UTF-8" standalone="no"?>
<!DOCTYPE svg PUBLIC "-//W3C//DTD SVG 1.1//EN" "http://www.w3.org/Graphics/SVG/1.1/DTD/svg11.dtd">
<svg width="100%" height="100%" viewBox="0 0 287 334" version="1.1" xmlns="http://www.w3.org/2000/svg" xmlns:xlink="http://www.w3.org/1999/xlink" xml:space="preserve" xmlns:serif="http://www.serif.com/" style="fill-rule:evenodd;clip-rule:evenodd;stroke-linejoin:round;stroke-miterlimit:2;">
    <g transform="matrix(1,0,0,1,-69.185193,-341.231167)">
        <g transform="matrix(1.5,0,0,1.5,0,0)">
            <path d="M207.625,308.604C205.818,304.494 191.009,270.801 156.71,284.985C146.639,289.149 138.835,301.088 130.241,307.114C95.621,331.387 122.773,344.791 123.022,360.514C123.143,368.152 124.262,372.754 106.986,387.593C95.984,385.793 93.061,389.21 84.749,384.088C83.235,383.155 81.784,384.282 73.267,369.023C106.676,342.437 61.503,335.747 66.244,300.462C68.231,285.672 87.815,248.186 125.762,277.158C136.465,285.33 148.789,277.533 150.674,269.556C168.511,194.098 256.929,232.945 233.123,286.33C226.903,300.28 210.112,307.531 207.625,308.604Z" fill="#C7D62A"/>
        </g>
        <g transform="matrix(1.5,0,0,1.5,0,0)">
            <path d="M207.625,308.604C204.132,366.703 163.669,334.587 150.845,355.725C140.901,372.113 166.747,392.646 143.201,411.087C135.182,417.369 125.813,415.129 122.775,416.593C103.284,404.08 106.221,399.248 106.986,387.593C124.262,372.754 123.143,368.152 123.022,360.514C122.773,344.791 95.621,331.387 130.241,307.114C138.835,301.088 146.639,289.149 156.71,284.985C191.009,270.801 205.818,304.494 207.625,308.604Z" fill="#FE6705"/>
        </g>
        <g transform="matrix(1.5,0,0,1.5,0,0)">
            <path d="M73.267,369.023C81.784,384.282 83.235,383.155 84.749,384.088C93.061,389.21 95.984,385.793 106.986,387.593C106.221,399.248 103.284,404.08 122.775,416.593C102.919,489.609 12.132,426.271 59.776,378.786C64.935,373.645 71.398,370.203 73.267,369.023Z" fill="#FD7699"/>
        </g>
    </g>
</svg>