<?xml version="1.0" encoding="UTF-8" standalone="no"?>
<!DOCTYPE svg PUBLIC "-//W3C//DTD SVG 1.1//EN" "http://www.w3.org/Graphics/SVG/1.1/DTD/svg11.dtd">
<svg width="100%" height="100%" viewBox="0 0 1663 543" version="1.1" xmlns="http://www.w3.org/2000/svg" xmlns:xlink="http://www.w3.org/1999/xlink" xml:space="preserve" xmlns:serif="http://www.serif.com/" style="fill-rule:evenodd;clip-rule:evenodd;stroke-linejoin:round;stroke-miterlimit:2;">
    <g transform="matrix(1,0,0,1,0,-0.353903)">
        <g transform="matrix(1,0,0,0.849754,0,584.956189)">
            <g transform="matrix(2.032697,0,0,2.392101,-749.136166,-1084.776177)">
                <path d="M369.09,320.173C371.294,299.78 378.573,283.59 379.58,280.994C380.377,278.937 385.323,266.19 391.159,255.966C399.91,240.638 419.716,205.45 450.896,190.052C452.804,189.11 464.744,183.213 476.184,181.782C500.867,178.693 515.07,185.562 518.113,187.034C550.045,202.476 551.242,238.365 530.638,256.2C527.71,258.735 527.194,258.629 527.364,260.213C527.485,261.34 527.744,261.232 528.818,261.626C532.634,263.026 532.62,262.976 536.318,264.607C549.267,270.32 558.318,281.761 562.044,290.116C566.493,300.092 572.959,317.193 560.086,344.166C555.128,354.555 546.365,362.04 544.878,363.31C535.033,371.72 520.505,376.352 509.233,376.535C490.699,376.835 481.341,369.743 480.248,368.98C474.065,364.668 468.987,360.047 465.372,351.923C463.024,346.646 463.876,346.421 463.673,345.969C463.583,345.766 462.706,343.809 461.367,344.423C460.831,344.669 460.136,347.146 460.065,347.396C459.445,349.607 456.616,355.356 452.782,359.714C443.72,370.019 435.587,372.855 428.055,375.068C419.412,377.608 405.642,376.513 402.731,375.835C389.583,372.774 383.197,367.017 380.135,363.861C366.236,349.533 368.396,327.698 369.09,320.173ZM461.895,320.147C462.351,323.223 462.387,323.203 462.451,326.329C462.495,328.458 462.127,329.431 464.215,329.159C465.601,328.979 465.18,326.057 468.823,321.812C478.623,310.393 487.563,314.033 495.184,306.194C499.978,301.263 499.383,295.662 499.28,294.69C497.462,277.577 464.962,273.734 460.919,302.203C460.122,307.815 461.467,316.506 461.895,320.147ZM470.934,230.274C470.998,230.902 470.521,233.396 473.185,237.795C476.453,243.19 487.94,247.2 496.201,238.157C505.753,227.699 497.459,209.99 482.089,214.754C480.245,215.325 476.311,217.492 474.751,219.751C471.6,224.316 471.497,226.054 470.934,230.274Z" fill="#000000"/>
                <path d="M679.356,320.762C679.14,322.009 678.937,321.959 678.92,323.283C678.876,326.736 677.778,334.104 673.357,341.593C659.782,364.587 626.401,372.731 601.962,358.26C601.49,357.98 583.717,347.904 577.124,324.642C576.471,322.339 576.395,322.399 575.744,320.109C574.31,315.061 571.722,301.02 572.151,281.248C572.711,255.48 576.189,238.448 576.936,234.787C577.849,230.317 577.586,230.29 578.664,225.863C586.561,193.446 599.457,181.014 602.536,178.047C620.839,160.404 647.615,163.879 656.265,176.238C656.614,176.738 661.583,181.981 662.635,192.711C662.728,193.665 662.93,195.722 661.506,204.629C660.033,213.845 650.365,232.064 643.841,241.996C641.847,245.032 635.337,257.101 634.622,258.428C612.913,298.677 622.869,328.974 639.721,318.708C646.8,314.395 644.959,304.426 654.927,299.632C655.391,299.409 662.86,296.31 669.581,301.016C672.526,303.078 672.949,305.995 674.665,304.307C676.077,302.918 675.216,302.654 674.774,300.745C674.178,298.173 672.485,284.579 678.742,269.247C682.772,259.37 692.303,239.524 717.671,231.518C736.907,225.447 761.647,229.244 778.079,249.496C788.723,262.614 792.167,281.219 788.677,294.865C787.661,298.839 783.007,320.302 761.048,334.926C755.308,338.749 745.76,342.398 743.322,343.004C721.734,348.373 708.708,343.37 701.226,339.796C695.57,337.093 685.947,330.045 681.766,321.733C681.116,320.439 680.795,320.801 679.356,320.762ZM731.274,290.766C735.056,290.162 743.927,289.295 746.12,276.729C747.754,267.363 738.785,254.502 725.214,261.687C715.007,267.091 713.115,284.288 723.56,289.136C727.659,291.038 730.891,290.744 731.274,290.766Z" fill="#000000"/>
                <path d="M863.315,227.934C864.274,227.898 870.441,227.671 875.315,228.322C882.617,229.298 908.02,232.609 917.554,260.143C920.993,270.075 919.936,282.502 918.176,290.112C916.478,297.456 911.616,307.504 909.354,311.001C904.437,318.604 904.468,318.637 898.131,325.121C877.753,345.973 850.419,346.566 849.712,346.59C844.315,346.777 824.884,348.643 808.201,334.705C796.789,325.173 792.819,307.023 794.131,294.74C796.532,272.261 809.132,257.269 809.179,257.197C811.751,253.312 821.758,243.536 827.694,239.944C844.724,229.64 856.178,228.808 863.315,227.934ZM854.25,290.853C854.462,290.834 857.63,291.025 861.882,289.015C867.248,286.478 870.887,279.635 871.258,275.295C872.097,265.475 863.075,256.898 852.722,260.165C839.614,264.301 836.151,283.25 846.713,288.814C851.195,291.175 853.588,290.794 854.25,290.853Z" fill="#000000"/>
                <path d="M1017.748,335.9C1016.798,335.852 1010.283,335.522 1006.205,333.029C998.554,328.351 997.488,321.398 997.298,320.161C995.67,309.538 998.659,307.301 1001.401,291.773C1002.397,286.131 1000.437,278.445 996.909,276.503C988.24,271.733 980.828,283.512 979.745,291.677C977.274,310.297 986.377,323.081 989.718,339.653C992.517,353.528 981.919,363.972 981.17,364.615C980.078,365.553 973.563,371.148 965.369,373.226C942.37,379.059 919.502,368.149 919.662,347.244C919.773,332.737 932.811,318.958 939.08,299.032C941.037,292.814 941.637,283.423 941.303,279.746C940.282,268.478 936.943,262.705 935.816,260.011C926.839,238.551 956.761,227.258 973.044,235.621C984.956,241.739 982.65,250.104 983.547,251.023C983.822,251.305 985.59,251.214 985.87,250.879C986.053,250.659 985.994,249.529 988.828,246.371C1004.099,229.358 1023.21,235.974 1030.36,243.141C1038.51,251.312 1037.74,257.801 1038.492,260.389C1039.086,262.429 1041.086,261.376 1041.217,261.216C1041.332,261.076 1041.502,260.351 1042.821,258.44C1056.366,238.811 1075.695,236.764 1079.245,236.21C1087.055,234.99 1100.631,237.251 1108.305,244.672C1122.267,258.175 1116.042,276.683 1115.612,278.354C1110.562,297.983 1094.001,316.661 1095.125,333.812C1095.743,343.229 1101.754,348.19 1105.08,349.506C1122.351,356.337 1130.265,342.074 1152.759,342.139C1164.368,342.173 1173.675,348.892 1176.812,353.199C1180.827,358.713 1182.059,359.64 1184.538,368.17C1190.999,390.4 1178.72,423.124 1145.139,430.734C1110.802,438.514 1082.846,419.785 1073.167,410.335C1061.719,399.158 1056.729,390.993 1051.045,377.132C1048.163,370.105 1044.995,356.629 1046.033,347.228C1049.634,314.622 1073.989,294.612 1066.715,278.486C1063.947,272.35 1052.805,270.45 1045.096,287.403C1038.454,302.009 1044.81,317.567 1034.906,328.349C1028.783,335.014 1023.205,335.626 1017.748,335.9Z" fill="#000000"/>
            </g>
        </g>
    </g>
</svg>
