<?xml version="1.0" encoding="UTF-8" standalone="no"?>
<!DOCTYPE svg PUBLIC "-//W3C//DTD SVG 1.1//EN" "http://www.w3.org/Graphics/SVG/1.1/DTD/svg11.dtd">
<svg width="100%" height="100%" viewBox="0 0 2412 469" version="1.1" xmlns="http://www.w3.org/2000/svg" xmlns:xlink="http://www.w3.org/1999/xlink" xml:space="preserve" xmlns:serif="http://www.serif.com/" style="fill-rule:evenodd;clip-rule:evenodd;stroke-linejoin:round;stroke-miterlimit:2;">
    <g transform="matrix(1,0,0,1,0,-732.535294)">
        <g transform="matrix(1.762987,0,0,0.854984,0,99.443475)">
            <g transform="matrix(0.996682,0,0,2.05517,-367.320239,399.553899)">
                <path d="M369.09,320.173C371.294,299.78 378.573,283.59 379.58,280.994C380.377,278.937 385.323,266.19 391.159,255.966C399.91,240.638 419.716,205.45 450.896,190.052C452.804,189.11 464.744,183.213 476.184,181.782C500.867,178.693 515.07,185.562 518.113,187.034C550.045,202.476 551.242,238.365 530.638,256.2C527.71,258.735 527.194,258.629 527.364,260.213C527.485,261.34 527.744,261.232 528.818,261.626C532.634,263.026 532.62,262.976 536.318,264.607C549.267,270.32 558.318,281.761 562.044,290.116C566.493,300.092 572.959,317.193 560.086,344.166C555.128,354.555 546.365,362.04 544.878,363.31C535.033,371.72 520.505,376.352 509.233,376.535C490.699,376.835 481.341,369.743 480.248,368.98C474.065,364.668 468.987,360.047 465.372,351.923C463.024,346.646 463.876,346.421 463.673,345.969C463.583,345.766 462.706,343.809 461.367,344.423C460.831,344.669 460.136,347.146 460.065,347.396C459.445,349.607 456.616,355.356 452.782,359.714C443.72,370.019 435.587,372.855 428.055,375.068C419.412,377.608 405.642,376.513 402.731,375.835C389.583,372.774 383.197,367.017 380.135,363.861C366.236,349.533 368.396,327.698 369.09,320.173ZM461.895,320.147C462.351,323.223 462.387,323.203 462.451,326.329C462.495,328.458 462.127,329.431 464.215,329.159C465.601,328.979 465.18,326.057 468.823,321.812C478.623,310.393 487.563,314.033 495.184,306.194C499.978,301.263 499.383,295.662 499.28,294.69C497.462,277.577 464.962,273.734 460.919,302.203C460.122,307.815 461.467,316.506 461.895,320.147ZM470.934,230.274C470.998,230.902 470.521,233.396 473.185,237.795C476.453,243.19 487.94,247.2 496.201,238.157C505.753,227.699 497.459,209.99 482.089,214.754C480.245,215.325 476.311,217.492 474.751,219.751C471.6,224.316 471.497,226.054 470.934,230.274Z" fill="#000000"/>
                <path d="M679.356,320.762C679.14,322.009 678.937,321.959 678.92,323.283C678.876,326.736 677.778,334.104 673.357,341.593C659.782,364.587 626.401,372.731 601.962,358.26C601.49,357.98 583.717,347.904 577.124,324.642C576.471,322.339 576.395,322.399 575.744,320.109C574.31,315.061 571.722,301.02 572.151,281.248C572.711,255.48 576.189,238.448 576.936,234.787C577.849,230.317 577.586,230.29 578.664,225.863C586.561,193.446 599.457,181.014 602.536,178.047C620.839,160.404 647.615,163.879 656.265,176.238C656.614,176.738 661.583,181.981 662.635,192.711C662.728,193.665 662.93,195.722 661.506,204.629C660.033,213.845 650.365,232.064 643.841,241.996C641.847,245.032 635.337,257.101 634.622,258.428C612.913,298.677 622.869,328.974 639.721,318.708C646.8,314.395 644.959,304.426 654.927,299.632C655.391,299.409 662.86,296.31 669.581,301.016C672.526,303.078 672.949,305.995 674.665,304.307C676.077,302.918 675.216,302.654 674.774,300.745C674.178,298.173 672.485,284.579 678.742,269.247C682.772,259.37 692.303,239.524 717.671,231.518C736.907,225.447 761.647,229.244 778.079,249.496C788.723,262.614 792.167,281.219 788.677,294.865C787.661,298.839 783.007,320.302 761.048,334.926C755.308,338.749 745.76,342.398 743.322,343.004C721.734,348.373 708.708,343.37 701.226,339.796C695.57,337.093 685.947,330.045 681.766,321.733C681.116,320.439 680.795,320.801 679.356,320.762ZM731.274,290.766C735.056,290.162 743.927,289.295 746.12,276.729C747.754,267.363 738.785,254.502 725.214,261.687C715.007,267.091 713.115,284.288 723.56,289.136C727.659,291.038 730.891,290.744 731.274,290.766Z" fill="#000000"/>
                <path d="M863.315,227.934C864.274,227.898 870.441,227.671 875.315,228.322C882.617,229.298 908.02,232.609 917.554,260.143C920.993,270.075 919.936,282.502 918.176,290.112C916.478,297.456 911.616,307.504 909.354,311.001C904.437,318.604 904.468,318.637 898.131,325.121C877.753,345.973 850.419,346.566 849.712,346.59C844.315,346.777 824.884,348.643 808.201,334.705C796.789,325.173 792.819,307.023 794.131,294.74C796.532,272.261 809.132,257.269 809.179,257.197C811.751,253.312 821.758,243.536 827.694,239.944C844.724,229.64 856.178,228.808 863.315,227.934ZM854.25,290.853C854.462,290.834 857.63,291.025 861.882,289.015C867.248,286.478 870.887,279.635 871.258,275.295C872.097,265.475 863.075,256.898 852.722,260.165C839.614,264.301 836.151,283.25 846.713,288.814C851.195,291.175 853.588,290.794 854.25,290.853Z" fill="#000000"/>
                <path d="M1017.748,335.9C1016.798,335.852 1010.283,335.522 1006.205,333.029C998.554,328.351 997.488,321.398 997.298,320.161C995.67,309.538 998.659,307.301 1001.401,291.773C1002.397,286.131 1000.437,278.445 996.909,276.503C988.24,271.733 980.828,283.512 979.745,291.677C977.274,310.297 986.377,323.081 989.718,339.653C992.517,353.528 981.919,363.972 981.17,364.615C980.078,365.553 973.563,371.148 965.369,373.226C942.37,379.059 919.502,368.149 919.662,347.244C919.773,332.737 932.811,318.958 939.08,299.032C941.037,292.814 941.637,283.423 941.303,279.746C940.282,268.478 936.943,262.705 935.816,260.011C926.839,238.551 956.761,227.258 973.044,235.621C984.956,241.739 982.65,250.104 983.547,251.023C983.822,251.305 985.59,251.214 985.87,250.879C986.053,250.659 985.994,249.529 988.828,246.371C1004.099,229.358 1023.21,235.974 1030.36,243.141C1038.51,251.312 1037.74,257.801 1038.492,260.389C1039.086,262.429 1041.086,261.376 1041.217,261.216C1041.332,261.076 1041.502,260.351 1042.821,258.44C1056.366,238.811 1075.695,236.764 1079.245,236.21C1087.055,234.99 1100.631,237.251 1108.305,244.672C1122.267,258.175 1116.042,276.683 1115.612,278.354C1110.562,297.983 1094.001,316.661 1095.125,333.812C1095.743,343.229 1101.754,348.19 1105.08,349.506C1122.351,356.337 1130.265,342.074 1152.759,342.139C1164.368,342.173 1173.675,348.892 1176.812,353.199C1180.827,358.713 1182.059,359.64 1184.538,368.17C1190.999,390.4 1178.72,423.124 1145.139,430.734C1110.802,438.514 1082.846,419.785 1073.167,410.335C1061.719,399.158 1056.729,390.993 1051.045,377.132C1048.163,370.105 1044.995,356.629 1046.033,347.228C1049.634,314.622 1073.989,294.612 1066.715,278.486C1063.947,272.35 1052.805,270.45 1045.096,287.403C1038.454,302.009 1044.81,317.567 1034.906,328.349C1028.783,335.014 1023.205,335.626 1017.748,335.9Z" fill="#000000"/>
                <g transform="matrix(1.063283,0,0,1.063283,-82.952803,-5.163142)">
                    <g transform="matrix(1.5,0,0,1.5,714.531999,-150.521379)">
                        <path d="M370.514,313.954C370.862,313.91 372.636,314.06 375.498,312.497C376.714,311.833 378.104,310.315 378.568,309.547C380.036,307.116 380.282,307.029 380.235,295.501C380.213,290.09 380.241,268.579 380.26,268.464C380.286,268.298 380.483,267.062 381.583,266.83C385.924,265.914 386.14,268.145 386.178,268.535C386.33,270.1 386.218,291.501 386.207,293.498C386.14,306.317 386.219,306.342 385.558,308.518C381.624,321.481 367.823,321.469 362.325,317.78C361.897,317.493 358.797,315.413 357.535,313.474C355.168,309.836 354.728,308.061 354.777,303.504C354.897,292.416 354.779,269.921 354.849,268.531C354.993,265.657 359.423,266.799 359.793,267.091C361.087,268.111 360.544,268.49 360.648,290.499C360.726,307.162 360.461,307.392 362.155,309.734C365.572,314.454 370.312,313.941 370.514,313.954Z" fill="#000000"/>
                    </g>
                    <g transform="matrix(1.5,0,0,1.5,714.531999,-150.521379)">
                        <path d="M436.51,290.091C452.758,290.223 453.412,289.685 453.969,291.283C454.164,291.844 454.534,294.512 453.449,295.421C452.346,296.343 435.226,295.318 434.209,296.059C433.491,296.582 433.368,296.611 433.479,297.501C433.668,299.012 436.171,308.379 444.704,312.067C450.995,314.785 453.9,312.947 454.183,315.539C454.616,319.509 453.46,320.053 449.503,319.478C446.204,318.998 444.982,318.931 440.458,316.573C438.297,315.447 434.034,311.587 432.943,310.145C423.207,297.282 428.443,284.592 429.281,282.42C430.04,280.452 436.446,267.754 450.521,266.776C452.158,266.662 453.04,266.548 453.745,267.292C454.462,268.049 454.474,271.492 453.284,272.05C452.29,272.517 438.506,271.606 433.714,287.558C432.819,290.539 436.059,290.037 436.51,290.091Z" fill="#000000"/>
                    </g>
                    <g transform="matrix(1.5,0,0,1.5,714.531999,-150.521379)">
                        <path d="M404.008,301.672C400.724,291.775 403.875,281.828 408.862,275.799C412.479,271.426 419.058,267.526 423.562,266.909C427.683,266.344 428.883,266.383 428.869,269.501C428.856,272.151 428.11,272.045 425.499,272.497C425.103,272.565 422.174,273.072 420.652,273.818C407.316,280.361 405.09,297.211 413.328,306.646C420.731,315.124 427.265,312.989 428.489,314.509C428.97,315.106 429.1,318.473 428.268,319.251C427.014,320.424 419.29,319.234 413.332,314.734C406.767,309.776 405.183,304.915 404.008,301.672Z" fill="#000000"/>
                    </g>
                    <g transform="matrix(1.5,0,0,1.5,714.531999,-150.521379)">
                        <path d="M348.198,305.401C346.753,309.278 345.608,312.763 339.69,316.8C336.275,319.13 330.798,320.177 329.934,319.124C329.37,318.436 329.129,314.447 330.684,313.953C332.585,313.351 336.82,313.528 340.779,307.674C343.568,303.549 343.069,301.198 343.108,286.498C343.157,268.301 342.84,268.162 343.441,267.46C344.356,266.393 348.136,266.494 348.614,267.411C349.21,268.552 349.064,268.631 349.074,283.501C349.085,301.534 349.007,301.968 348.724,303.547C348.724,303.547 348.24,305.253 348.198,305.401Z" fill="#000000"/>
                    </g>
                    <g transform="matrix(1.5,0,0,1.5,714.531999,-150.521379)">
                        <path d="M391.88,274.5C391.842,268.593 391.871,268.595 391.882,268.546C392.289,266.745 392.669,266.796 394.507,266.738C398.096,266.626 397.836,267.916 397.799,271.504C397.697,281.503 397.866,315.231 397.682,317.52C397.531,319.4 396.188,319.526 395.508,319.588C391.705,319.936 391.87,317.919 391.839,317.467C391.777,316.571 391.823,280.932 391.88,274.5Z" fill="#000000"/>
                    </g>
                    <g transform="matrix(1.5,0,0,1.5,714.531999,-150.521379)">
                        <path d="M493.5,290.1C495.081,290.112 502.032,290.907 504.661,286.607C505.073,285.933 507.873,281.354 505.087,276.73C500.624,269.325 489.208,271.639 487.287,279.446C486.866,281.159 486.998,281.185 486.984,301.5C486.983,306.167 486.982,310.833 486.981,315.499C486.979,318.453 487.459,319.622 484.502,319.626C482.185,319.63 481.314,319.313 481.109,317.552C481.004,316.644 481.08,295.422 481.086,293.498C481.136,279.674 480.666,278.591 483.553,273.533C485.531,270.068 490.161,267.529 492.615,266.995C505.015,264.3 511.537,273.295 512.134,279.549C512.958,288.191 508.322,291.027 507.761,292.578C507.224,294.062 511.191,295.627 512.575,301.483C513.157,303.945 512.969,318 512.736,318.616C512.171,320.117 508.345,319.767 507.672,319.263C506.56,318.429 507.134,318.103 506.937,305.49C506.926,304.796 506.846,299.653 503.483,297.524C496.972,293.403 490.753,298.465 490.445,293.503C490.195,289.473 492.016,290.232 493.5,290.1Z" fill="#000000"/>
                    </g>
                    <g transform="matrix(1,0,0,1,714.531999,-150.521379)">
                        <path d="M807.742,479.893C804.43,479.713 804.432,479.834 800.354,478.815C784.376,474.821 778.204,459.122 776.171,450.769C774.66,444.558 775.455,431.88 775.983,429.693C776.661,426.886 779.167,420.174 779.556,419.399C792.651,393.344 815.28,398.814 822.969,403.89C829.846,408.432 837.802,415.802 840.68,434.26C842.301,444.657 838.985,458.278 831.995,467.428C823.202,478.94 812.954,479.722 807.742,479.893ZM807.738,471.074C817.385,469.921 820.853,467.032 824.993,461.836C832.894,451.919 835.441,434.801 826.557,419.67C820.004,408.509 805.648,404.712 795.444,412.845C785.079,421.106 784.397,433.75 784.288,435.788C783.764,445.507 784.551,450.133 787.317,456.498C788.105,458.313 791.516,463.809 794.225,465.78C801.155,470.82 803.049,470.604 807.738,471.074Z" fill="#000000"/>
                    </g>
                    <g transform="matrix(1,0,0,1,714.531999,-150.521379)">
                        <path d="M879.738,479.941C877.505,479.829 871.084,479.797 864.351,475.381C863.557,474.86 858.691,471.668 855.604,467.361C846.419,454.544 847.156,443.959 847.236,437.261C847.354,427.323 851.394,416.032 858.83,408.833C880.626,387.732 914.082,404.348 913.35,441.764C913.04,457.593 904.501,468.285 899.722,472.314C893.453,477.599 890.099,478.259 887.18,478.972C882.256,480.173 882.211,479.785 879.738,479.941ZM879.745,470.884C881.631,470.786 885.989,471.213 892.723,466.545C894.389,465.39 899.299,459.921 901.17,455.429C904.287,447.948 904.77,442.929 904.302,435.709C903.781,427.688 898.122,412.369 885.631,409.218C883.696,408.73 871.251,405.591 862.349,418.172C853.394,430.828 852.638,456.145 867.889,467.049C869.94,468.515 871.67,469.187 872.022,469.323C876.557,471.084 878.289,470.792 879.745,470.884Z" fill="#000000"/>
                    </g>
                    <g transform="matrix(1.5,0,0,1.5,714.531999,-150.521379)">
                        <path d="M613.897,278.567C613.985,278.184 614.052,277.795 614.141,277.412C615.775,270.309 621.785,267.437 624.58,266.88C631.657,265.469 635.495,267.957 636.494,268.509C639.102,269.952 639.707,272.402 641.591,270.615C648.402,264.153 657.233,266.559 660.424,268.622C667.858,273.428 667.077,281.671 667.077,282.501C667.078,283.541 667.087,294.281 667.062,295.501C666.822,307.472 667.329,317.268 666.784,318.655C666.23,320.063 661.903,319.953 661.349,318.575C660.827,317.276 661.309,282.934 661.08,280.532C660.098,270.265 646.191,269.226 643.475,278.493C643.104,279.756 643.126,279.785 642.987,315.501C642.976,318.436 643.442,319.591 640.501,319.595C640.241,319.596 637.884,319.599 637.434,318.533C636.845,317.136 637.314,294.776 637.147,281.507C637.007,270.364 624.956,270.458 621.461,275.469C619.495,278.288 619.507,278.465 619.447,289.5C619.392,299.511 619.579,299.491 619.502,309.5C619.435,318.216 620.017,319.317 617.509,319.591C613.986,319.976 613.617,319.048 613.646,315.501C613.822,293.759 613.468,284.593 613.897,278.567Z" fill="#000000"/>
                    </g>
                </g>
            </g>
        </g>
    </g>
</svg>
